<?xml version="1.0" encoding="UTF-8"?>
<svg width="383px" height="468px" viewBox="0 0 383 468" version="1.1" xmlns="http://www.w3.org/2000/svg" xmlns:xlink="http://www.w3.org/1999/xlink">
    <!-- Generator: Sketch 43.1 (39012) - http://www.bohemiancoding.com/sketch -->
    <title>New Hebron Baptist Church</title>
    <desc>Created with Sketch.</desc>
    <defs></defs>
    <g id="Page-1" stroke="none" stroke-width="1" fill="none" fill-rule="evenodd">
        <g id="New-Hebron-Baptist-Church" fill="#FFFFFF">
            <path d="M137.9373,195.634 C135.1661,195.8579 132.3998,195.1212 129.4648,194.5389 C125.1281,193.6786 120.7613,192.8132 117.0545,194.6398 C117.305,195.2436 117.5247,195.848 117.7152,196.4563 C123.5679,193.5661 131.7688,198.114 138.0011,197.566 C138.0192,197.6712 138.0362,197.7792 138.0518,197.89 L138.0527,197.4739 C138.8696,197.0912 140.5129,196.6488 141.2694,196.727 L140.5905,194.5568 C139.7098,194.6699 138.9053,194.9363 137.95,195.433 L137.9373,195.634 Z M121.523,299.8874 L163.0687,299.8874 L162.9057,376.6621 L162.9057,396.0502 L9.1866,396.0502 L9.1866,376.6621 L9.8482,376.6621 L9.8482,375.3443 L10.7751,375.3443 L10.7751,337.4076 L9.8482,337.4076 L9.8482,335.2125 L9.6968,335.2125 L9.6968,328.2511 L119.278,328.2511 L119.278,325.4148 L0.9301,325.4148 L0.9301,322.0628 L17.9476,314.0697 L121.36,314.0697 L121.523,299.8874 Z M208.5684,362.7766 L282.6068,362.7766 L282.6068,365.7243 L208.5684,365.7243 L208.5684,362.7766 Z M180.9927,391.9488 L314.7041,391.9488 L314.7041,396.2044 L180.9927,396.2044 L180.9927,391.9488 Z M185.1602,387.9584 L309.8279,387.9584 L309.8279,391.25 L185.1602,391.25 L185.1602,387.9584 Z M188.7959,383.6138 L306.813,383.6138 L306.813,387.2492 L188.7959,387.2492 L188.7959,383.6138 Z M192.6632,379.5591 L301.2271,379.5591 L301.2271,382.8158 L192.6632,382.8158 L192.6632,379.5591 Z M195.9991,375.7028 L297.3252,375.7028 L297.3252,378.7362 L195.9991,378.7362 L195.9991,375.7028 Z M200.4112,370.7569 L291.4733,370.7569 L291.4733,374.9242 L200.4112,374.9242 L200.4112,370.7569 Z M204.2241,366.9441 L287.572,366.9441 L287.572,369.9695 L204.2241,369.9695 L204.2241,366.9441 Z M164.4061,181.2178 C165.4807,181.2178 166.3515,182.0883 166.3515,183.1629 C166.3515,183.7146 166.1219,184.2123 165.7531,184.5664 L165.7531,231.393 L163.0599,233.7866 L163.0599,184.5664 C162.6911,184.2123 162.4615,183.7146 162.4615,183.1629 C162.4615,182.0883 163.3326,181.2178 164.4061,181.2178 Z M163.0341,278.3821 L163.0341,293.7311 L121.5224,293.7311 L163.0341,278.3821 Z M219.3718,268.9637 L219.5462,282.5686 L200.0112,293.7311 L165.9991,293.7311 L165.9991,277.3355 L189.3714,268.7888 L219.3718,268.9637 Z M264.5462,268.9637 L264.5462,279.08 L291.5813,293.9054 L371.1167,293.9054 L296.2905,269.3123 L264.5462,268.9637 Z M264.2304,187.3024 L264.4047,266.3147 L293.8814,266.3147 L371.4982,291.2565 L371.4982,288.1171 L264.2304,187.3024 Z M264.4711,183.6805 L264.49,179.0422 L364.1397,273.388 L363.8432,277.8959 L264.4711,183.6805 Z M219.4796,186.137 L219.4628,180.8201 L131.4808,267.9826 L131.8961,272.8622 L219.4796,186.137 Z M219.7205,188.7305 L219.5462,266.696 L190.0695,266.696 L121.8711,290.5915 L121.697,285.01 L219.7205,188.7305 Z M240.3451,65.81 L243.0074,65.81 L243.0074,71.676 L250.1054,71.676 L250.1054,74.2887 L243.0074,74.2887 L243.0074,87.0557 L240.3451,87.0557 L240.3451,74.2887 L233.2469,74.2887 L233.2469,71.676 L240.3451,71.676 L240.3451,65.81 Z M216.8453,125.2134 L267.9511,125.5845 L241.4243,88.02 L216.8453,125.2134 Z M216.5735,128.1994 L222.6135,128.1994 L226.3292,128.1994 L258.6425,128.1994 L261.8141,128.1994 L268.3987,128.1994 L268.3987,139.8461 L264.496,143.4096 L261.8141,143.4096 L261.8141,277.6519 L244.4596,268.2601 L222.6135,280.5103 L222.6135,143.4096 L220.4757,143.4096 L216.5735,139.8461 L216.5735,128.1994 Z M232.8217,129.8328 L249.5637,129.8328 L249.5637,145.9622 L232.8217,145.9622 L232.8217,129.8328 Z M291.1261,295.2102 L244.4596,270.0978 L200.2403,295.2102 L121.5494,295.2102 L121.5494,298.069 L371.249,298.069 L371.249,295.2102 L291.1261,295.2102 Z M282.8679,299.7034 L371.5189,299.7034 L371.5189,324.8394 L346.5757,310.2064 L312.0339,329.302 L312.0339,334.8964 L346.6973,316.2875 L371.5189,331.1351 L371.5189,396.5264 L315.4451,396.5264 L315.4451,391.2078 L310.5689,391.2078 L310.5689,387.218 L307.554,387.218 L307.554,382.8728 L301.968,382.8728 L301.968,378.8181 L298.0661,378.8181 L298.0661,374.9619 L292.214,374.9619 L292.214,370.016 L288.313,370.016 L288.313,366.2031 L283.3475,366.2031 L283.3475,362.0359 L282.8679,362.0359 L282.8679,299.7034 Z M344.1773,338.7887 L359.7452,338.7887 L359.7452,389.9937 L344.1773,389.9937 L344.1773,338.7887 Z M327.1156,338.7887 L342.6835,338.7887 L342.6835,389.9937 L327.1156,389.9937 L327.1156,338.7887 Z M212.2694,299.7409 L277.9376,299.7409 L277.9376,361.946 L212.2694,361.946 L212.2694,299.7409 Z M246.744,305.1822 L262.9443,305.1822 L262.9443,358.731 L246.744,358.731 L246.744,305.1822 Z M227.6042,305.1822 L243.8054,305.1822 L243.8054,358.731 L227.6042,358.731 L227.6042,305.1822 Z M166.0176,299.8644 L207.0754,299.8644 L207.0754,366.2031 L203.4831,366.2031 L203.4831,370.016 L199.6705,370.016 L199.6705,374.9619 L195.2584,374.9619 L195.2584,378.8181 L191.9223,378.8181 L191.9223,382.8728 L188.055,382.8728 L188.055,387.218 L184.4192,387.218 L184.4192,391.2078 L180.252,391.2078 L180.252,395.8317 L166.0176,395.8317 L166.0176,299.8644 Z M51.6198,337.4706 L51.6198,375.4066 L52.5464,375.4066 L52.5464,376.6621 L119.278,376.6621 L119.278,335.2125 L52.5464,335.2125 L52.5464,337.4706 L51.6198,337.4706 Z M49.0896,375.4066 L49.0896,337.4706 L48.1632,337.4706 L48.1632,335.2125 L36.2537,335.2125 L36.2537,337.5329 L35.3274,337.5329 L35.3274,375.4693 L36.2537,375.4693 L36.2537,376.6621 L48.1632,376.6621 L48.1632,375.4066 L49.0896,375.4066 Z M32.7972,375.4693 L32.7972,337.5329 L31.8708,337.5329 L31.8708,335.2125 L14.2314,335.2125 L14.2314,337.4076 L13.3047,337.4076 L13.3047,375.3443 L14.2314,375.3443 L14.2314,376.6621 L31.8708,376.6621 L31.8708,375.4693 L32.7972,375.4693 Z M138.1094,199.5302 L138.0597,199.6818 L137.4775,199.7691 C131.1259,199.8491 123.9239,195.1246 118.1472,198.0601 C118.3266,198.849 118.4599,199.6455 118.55,200.4554 C124.3412,198.0066 131.7286,202.4989 137.9248,201.9546 L137.9254,201.9391 L138.0986,201.9501 C139.2004,200.3902 139.794,200.2238 141.0602,200.1002 C140.9471,199.4466 140.8139,198.8368 140.7212,198.1389 C140.2781,197.909 138.4855,199.2359 138.1094,199.5302 Z M138.0938,203.1279 C138.0881,203.1914 138.0836,203.2501 138.0816,203.302 L137.5203,203.4329 C131.1718,204.2793 124.7701,199.6336 118.679,202.2191 C118.7056,202.9615 118.7,203.7169 118.6645,204.4863 C125.3546,201.4353 131.5386,206.6777 137.4991,205.3792 C137.5076,205.386 137.5124,205.388 137.5124,205.3823 L138.0887,205.344 L138.0884,205.3174 C138.824,204.465 139.8405,203.6347 140.8255,203.2379 C140.9559,203.1854 140.9559,202.4799 140.9559,202.4799 C140.9559,202.4799 140.4601,201.8781 140.33,201.7999 C139.0692,202.2123 138.39,202.9655 138.0938,203.1279 Z M153.8547,206.4226 L153.8618,206.4235 L154.5211,205.9699 L155.1906,206.4303 L154.9593,205.6516 L155.6037,205.1575 L154.7921,205.1365 L154.5211,204.3706 L154.2501,205.1365 L153.4388,205.1575 L154.0831,205.6516 L153.8547,206.4226 Z M160.1269,206.6233 L160.1757,206.6205 C160.1768,206.6423 160.5906,214.3571 160.765,215.0581 C160.9549,215.8161 161.4614,217.4562 161.4629,217.4607 L161.6168,217.984 L161.0827,218.1056 C161.0666,218.1099 155.253,219.4268 149.7663,218.1872 C149.226,218.0651 148.777,217.961 148.3396,217.8604 C144.9584,217.0789 141.5075,216.2812 140.6325,216.8779 C140.4335,217.0134 140.5219,217.3972 141.0276,218.1393 C141.1762,218.3573 141.281,218.5827 141.3451,218.8114 C141.4894,219.3273 141.4208,219.8401 141.1762,220.3158 C140.9514,220.7537 140.5755,221.1557 140.0837,221.4907 C139.6262,221.8028 139.0601,222.0625 138.4178,222.2419 C137.4611,222.5095 135.6237,222.4698 133.6306,222.2796 C131.0851,222.0375 128.2468,221.5497 126.705,221.1523 C125.4167,220.8198 123.2431,220.6055 121.3345,220.5389 C119.5183,220.4757 118.0106,220.47 117.9664,220.5587 C117.5636,221.3649 115.174,221.5378 115.1671,221.5378 L114.5053,221.5698 L114.6405,220.921 C114.6416,220.9147 115.1589,218.4727 115.4515,217.6934 C115.5728,217.3697 115.9478,215.504 116.3396,213.4046 C116.7733,211.0797 117.2223,208.4885 117.3714,207.37 C117.6857,205.001 117.7654,202.8048 117.5443,200.7017 C117.3246,198.6126 116.8059,196.6096 115.9251,194.6129 L115.7366,194.1854 L116.1462,193.9575 C120.2715,191.6677 124.9835,192.6014 129.6621,193.5298 C132.5285,194.0984 135.3833,194.6645 138.013,194.4525 L137.9739,195.0662 L138.0461,194.5823 C140.1205,186.8585 156.9311,191.7477 161.9501,193.6335 C161.9501,193.6335 159.9835,197.2951 160.0285,202.4025 C160.0495,204.8267 160.09,206.0289 160.1269,206.6233 Z M147.8274,203.1469 L148.0981,203.9134 L148.9102,203.9341 L148.2656,204.4282 L148.4963,205.2066 L147.8274,204.7459 L147.1587,205.2066 L147.3897,204.4282 L146.7448,203.9341 L147.5572,203.9134 L147.8274,203.1469 Z M146.2899,201.8115 L146.5609,202.5777 L147.3724,202.5984 L146.7281,203.0925 L146.9591,203.8714 L146.2899,203.4108 L145.7873,203.7569 L146.0543,203.7634 L145.4097,204.2572 L145.6407,205.0365 L144.9717,204.5758 L144.3025,205.0365 L144.5335,204.2572 L143.8889,203.7634 L144.701,203.7427 L144.9717,202.9765 L145.2422,203.7427 L145.656,203.7529 L145.8516,203.0925 L145.2073,202.5984 L146.0191,202.5777 L146.2899,201.8115 Z M146.5651,199.0321 L146.8355,199.7986 L147.6474,199.819 L147.0028,200.3134 L147.2344,201.0918 L146.5651,200.6311 L145.899,201.0895 L145.9996,201.0923 L145.355,201.5861 L145.586,202.3654 L144.917,201.9048 L144.2903,202.3359 L144.5704,202.3433 L143.9258,202.8374 L144.1571,203.616 L143.4881,203.1554 L142.8188,203.616 L143.0496,202.8374 L142.405,202.3433 L143.2171,202.3223 L143.4881,201.5564 L143.7585,202.3223 L144.2569,202.3353 L144.4791,201.5861 L143.8342,201.0923 L144.6463,201.0717 L144.917,200.3054 L145.1877,201.0717 L145.8964,201.0895 L146.1269,200.3134 L145.4823,199.819 L146.2944,199.7986 L146.5651,199.0321 Z M149.8145,199.3729 L150.0849,200.1393 L150.8967,200.1597 L150.2521,200.6544 L150.4834,201.4331 L149.8145,200.9724 L149.1452,201.4331 L149.1679,201.3557 L148.6041,201.788 L148.8354,202.5664 L148.1661,202.106 L147.4974,202.5664 L147.7282,201.788 L147.0836,201.2939 L147.8957,201.2726 L148.1661,200.5067 L148.4371,201.2726 L149.1866,201.2922 L149.3762,200.6544 L148.7313,200.1597 L149.5435,200.1393 L149.8145,199.3729 Z M153.1814,199.6835 L153.4519,200.4497 L154.2643,200.4701 L153.6197,200.9648 L153.8507,201.7432 L153.1814,201.2826 L152.5125,201.7432 L152.7432,200.9648 L152.0986,200.4701 L152.9107,200.4497 L153.1814,199.6835 Z M151.7621,197.991 L152.0329,198.7572 L152.845,198.7779 L152.2004,199.2717 L152.4311,200.0509 L151.7621,199.5903 L151.0929,200.0509 L151.3245,199.2717 L150.6799,198.7779 L151.4917,198.7572 L151.7621,197.991 Z M151.2471,201.0328 L151.5175,201.7993 L152.3296,201.8203 L151.685,202.3144 L151.9158,203.0928 L151.2471,202.6321 L150.5985,203.0786 L150.651,203.08 L150.0066,203.5738 L150.2374,204.353 L149.5684,203.8924 L148.8991,204.353 L149.1299,203.5738 L148.4853,203.08 L149.2974,203.0593 L149.5684,202.2931 L149.8388,203.0593 L150.5824,203.078 L150.8089,202.3144 L150.164,201.8203 L150.9764,201.7993 L151.2471,201.0328 Z M151.1037,203.8422 L151.3746,204.609 L152.1862,204.6294 L151.5419,205.1232 L151.7729,205.9022 L151.1037,205.4415 L150.4347,205.9022 L150.6654,205.1232 L150.0211,204.6294 L150.8329,204.609 L151.1037,203.8422 Z M152.8441,202.7087 L153.1148,203.4749 L153.9272,203.4953 L153.2824,203.9899 L153.5134,204.7683 L152.8441,204.3077 L152.1757,204.7683 L152.4065,203.9899 L151.7619,203.4953 L152.574,203.4749 L152.8441,202.7087 Z M154.5852,201.5751 L154.8556,202.3413 L155.6677,202.362 L155.0231,202.8558 L155.2544,203.635 L154.5852,203.1744 L153.9159,203.635 L154.1469,202.8558 L153.502,202.362 L154.3142,202.3413 L154.5852,201.5751 Z M154.7459,198.3918 L155.0166,199.1583 L155.8287,199.1787 L155.1841,199.6733 L155.4149,200.4517 L154.7459,199.9911 L154.0766,200.4517 L154.3079,199.6733 L153.6631,199.1787 L154.4752,199.1583 L154.7459,198.3918 Z M153.4196,196.606 L153.6903,197.3719 L154.5021,197.3931 L153.8578,197.8869 L154.0885,198.6656 L153.4196,198.2053 L152.7506,198.6656 L152.9816,197.8869 L152.3367,197.3931 L153.1491,197.3719 L153.4196,196.606 Z M150.0945,196.3106 L150.3655,197.0768 L151.1774,197.0975 L150.5328,197.5916 L150.7635,198.3705 L150.0945,197.9099 L149.4729,198.3376 L149.66,198.3427 L149.0151,198.8365 L149.2461,199.6155 L148.5769,199.1551 L147.9079,199.6155 L148.1389,198.8365 L147.4943,198.3427 L148.3064,198.3218 L148.5769,197.5558 L148.8478,198.3218 L149.4357,198.3371 L149.6569,197.5916 L149.012,197.0975 L149.8244,197.0768 L150.0945,196.3106 Z M147.0025,196.0155 L147.2732,196.7814 L148.0853,196.8021 L147.4407,197.2962 L147.6717,198.0746 L147.0025,197.614 L146.3332,198.0746 L146.5643,197.2962 L145.9197,196.8021 L146.7315,196.7814 L147.0025,196.0155 Z M145.351,197.3965 L145.6217,198.1627 L146.4333,198.1831 L145.789,198.6772 L146.02,199.4562 L145.351,198.9956 L144.6818,199.4562 L144.9128,198.6772 L144.2682,198.1831 L145.08,198.1627 L145.351,197.3965 Z M141.9755,203.0304 L142.2462,203.7969 L143.0584,203.8173 L142.4138,204.3114 L142.6445,205.09 L141.9755,204.6294 L141.3066,205.09 L141.5376,204.3114 L140.8927,203.8173 L141.7048,203.7969 L141.9755,203.0304 Z M142.0895,200.033 L142.3605,200.7995 L143.036,200.8165 L143.2608,200.0591 L142.6162,199.5645 L143.4283,199.5438 L143.699,198.7779 L143.9697,199.5438 L144.7818,199.5645 L144.1369,200.0591 L144.3683,200.8375 L143.699,200.3769 L143.0595,200.8171 L143.1726,200.8199 L142.528,201.3143 L142.7587,202.0933 L142.0895,201.6326 L141.4205,202.0933 L141.6512,201.3143 L141.0069,200.8199 L141.8191,200.7995 L142.0895,200.033 Z M142.1107,197.1754 L142.3814,197.9422 L143.193,197.9626 L142.549,198.4567 L142.7797,199.2354 L142.1107,198.7747 L141.4415,199.2354 L141.6725,198.4567 L141.0279,197.9626 L141.8397,197.9422 L142.1107,197.1754 Z M143.8977,195.8551 L144.1684,196.6215 L144.9805,196.642 L144.3357,197.1357 L144.5667,197.9144 L143.8977,197.4541 L143.2287,197.9144 L143.4595,197.1357 L142.8149,196.642 L143.627,196.6215 L143.8977,195.8551 Z M145.499,194.5344 L145.7697,195.3003 L146.5818,195.3213 L145.9372,195.8151 L146.168,196.5938 L145.499,196.1337 L144.8297,196.5938 L145.0605,195.8151 L144.4164,195.3213 L145.2283,195.3003 L145.499,194.5344 Z M148.7733,194.4712 L149.0434,195.2377 L149.8556,195.2581 L149.2107,195.7522 L149.4423,196.5311 L148.7733,196.0705 L148.1037,196.5311 L148.3348,195.7522 L147.6902,195.2581 L148.502,195.2377 L148.7733,194.4712 Z M151.8143,194.9208 L152.0853,195.687 L152.8971,195.7074 L152.2525,196.202 L152.4836,196.9804 L151.8143,196.5198 L151.1453,196.9804 L151.3761,196.202 L150.732,195.7074 L151.5436,195.687 L151.8143,194.9208 Z M155.1813,195.37 L155.452,196.1365 L156.2641,196.1575 L155.6195,196.6516 L155.8503,197.43 L155.1813,196.9694 L154.5126,197.43 L154.7436,196.6516 L154.099,196.1575 L154.9111,196.1365 L155.1813,195.37 Z M156.5966,197.17 L156.8673,197.9365 L157.6795,197.9575 L157.0349,198.4516 L157.2659,199.2303 L156.5966,198.7696 L155.9277,199.2303 L156.1587,198.4516 L155.5141,197.9575 L156.3262,197.9365 L156.5966,197.17 Z M156.153,200.1816 L156.424,200.9481 L157.2358,200.9685 L156.5912,201.4626 L156.8223,202.2412 L156.153,201.7809 L155.484,202.2412 L155.7148,201.4626 L155.0707,200.9685 L155.8823,200.9481 L156.153,200.1816 Z M157.5893,204.5268 L157.86,205.293 L158.6719,205.314 L158.0276,205.8081 L158.2583,206.5867 L157.5893,206.1261 L156.9201,206.5867 L157.1511,205.8081 L156.5062,205.314 L157.3183,205.293 L157.5893,204.5268 Z M157.7036,201.9019 L157.974,202.6684 L158.7861,202.6894 L158.1415,203.1835 L158.3723,203.9621 L157.7036,203.5015 L157.0343,203.9621 L157.0748,203.8261 L156.4728,204.2873 L156.7038,205.0665 L156.0345,204.6059 L155.3653,205.0665 L155.5963,204.2873 L154.9523,203.7935 L155.7638,203.7725 L156.0345,203.0066 L156.3055,203.7725 L157.0845,203.7923 L157.265,203.1835 L156.6204,202.6894 L157.4326,202.6684 L157.7036,201.9019 Z M157.8172,198.7654 L158.0882,199.5313 L158.9003,199.5523 L158.2555,200.0461 L158.4865,200.8253 L157.8172,200.3647 L157.1483,200.8253 L157.3793,200.0461 L156.7347,199.5523 L157.5468,199.5313 L157.8172,198.7654 Z M158.6285,196.0478 L158.8995,196.814 L159.7108,196.8347 L159.0667,197.3288 L159.2978,198.1077 L158.6285,197.6471 L157.9595,198.1077 L158.1903,197.3288 L157.546,196.8347 L158.3578,196.814 L158.6285,196.0478 Z M157.3949,194.2149 L157.6656,194.9814 L158.4777,195.0024 L157.8331,195.4965 L158.0641,196.2751 L157.3949,195.8142 L156.7259,196.2751 L156.9572,195.4965 L156.3126,195.0024 L157.1244,194.9814 L157.3949,194.2149 Z M153.745,193.7798 L154.0157,194.5463 L154.8278,194.5667 L154.1832,195.0605 L154.4142,195.8397 L153.745,195.3791 L153.076,195.8397 L153.3067,195.0605 L152.6621,194.5667 L153.4743,194.5463 L153.745,193.7798 Z M150.0951,192.879 L150.3658,193.6452 L151.1779,193.6656 L150.5333,194.1597 L150.7643,194.9383 L150.0951,194.478 L149.4258,194.9383 L149.6569,194.1597 L149.0125,193.6656 L149.8247,193.6452 L150.0951,192.879 Z M146.9566,192.9096 L147.2267,193.6755 L148.0391,193.6962 L147.3942,194.1903 L147.6258,194.9692 L146.9566,194.5086 L146.2876,194.9692 L146.5183,194.1903 L145.8737,193.6962 L146.6859,193.6755 L146.9566,192.9096 Z M144.0964,192.9399 L144.3674,193.7061 L145.1792,193.7268 L144.5346,194.2212 L144.7657,194.9996 L144.0964,194.5389 L143.4274,194.9996 L143.6582,194.2212 L143.0141,193.7268 L143.8257,193.7061 L144.0964,192.9399 Z M142.1195,194.1815 L142.3905,194.948 L143.2026,194.9684 L142.5578,195.463 L142.7888,196.2414 L142.1195,195.7808 L141.4506,196.2414 L141.6813,195.463 L141.037,194.9684 L141.8491,194.948 L142.1195,194.1815 Z M159.1495,193.4204 L159.4202,194.1869 L160.2323,194.2073 L159.5877,194.7016 L159.8185,195.48 L159.1495,195.0194 L158.4808,195.48 L158.7118,194.7016 L158.0672,194.2073 L158.8794,194.1869 L159.1495,193.4204 Z M155.5243,192.6502 L155.7947,193.4161 L156.6068,193.4368 L155.9622,193.9309 L156.1933,194.7099 L155.5243,194.2492 L154.855,194.7099 L155.0863,193.9309 L154.4414,193.4368 L155.2533,193.4161 L155.5243,192.6502 Z M151.9682,191.835 L152.2389,192.6012 L153.0505,192.6221 L152.4065,193.1162 L152.6375,193.8949 L151.9682,193.4346 L151.299,193.8949 L151.53,193.1162 L150.8857,192.6221 L151.6975,192.6012 L151.9682,191.835 Z M148.6273,191.3536 L148.8983,192.1196 L149.7104,192.1403 L149.0655,192.6343 L149.2966,193.4133 L148.6273,192.9529 L147.9589,193.4133 L148.1896,192.6343 L147.545,192.1403 L148.3572,192.1196 L148.6273,191.3536 Z M145.5032,191.272 L145.774,192.0379 L146.5861,192.0589 L145.9415,192.5533 L146.1722,193.3317 L145.5032,192.871 L144.834,193.3317 L145.0653,192.5533 L144.4204,192.0589 L145.2328,192.0379 L145.5032,191.272 Z M142.1008,191.7992 L142.3715,192.5657 L143.1831,192.5861 L142.5391,193.0802 L142.7698,193.8595 L142.1008,193.3988 L141.4316,193.8595 L141.6626,193.0802 L141.018,192.5861 L141.8298,192.5657 L142.1008,191.7992 Z M118.5058,206.517 C118.4712,206.8424 118.4321,207.1707 118.3876,207.5023 C118.3499,207.7875 118.2935,208.1637 118.2235,208.6039 C121.9485,207.2628 124.4228,207.2058 128.2714,208.2144 C132.4486,209.3089 134.3299,209.2258 135.6934,209.2258 C136.9905,209.2258 137.9217,209.0427 138.0093,209.0248 C137.8724,209.6453 137.9415,210.3367 137.9415,210.3367 C143.2327,207.5831 146.522,209.0455 152.0224,209.9637 C155.706,210.5793 158.5026,210.4328 159.3655,210.3628 C159.3176,209.5926 159.2737,208.8516 159.2382,208.2379 C158.0083,208.5186 154.6801,208.7003 152.5332,208.194 C149.6639,207.5176 144.4181,206.307 138.4523,208.4267 C138.3132,208.592 138.0827,208.7226 138.0243,208.9608 L138.1286,207.3589 C136.7952,208.1333 133.5762,207.2872 130.1497,206.6202 C126.6653,205.9416 122.002,205.0402 118.5058,206.517 Z M117.942,210.2888 C117.8334,210.9169 117.7146,211.5902 117.5922,212.2665 C117.6786,212.2254 117.6974,212.1849 117.9117,212.1529 C118.2549,212.1021 119.8639,211.5471 122.7915,211.2684 C125.7194,210.9889 128.7859,212.3394 131.8995,212.9449 C135.0134,213.5503 137.0118,212.8519 137.0118,212.8519 L137.0118,213.9693 C144.2396,210.4475 152.4002,215.3089 159.5917,213.658 C159.55,213.1382 159.5072,212.5367 159.4653,211.9099 C154.5843,213.742 144.5338,208.4789 137.9875,211.7339 C137.9719,211.3617 137.9566,210.7557 137.941,210.3832 C137.1974,211.9201 133.7125,211.4076 130.5987,210.8021 C129.6658,210.6207 123.4925,208.19 117.942,210.2888 Z M117.2262,214.24 C117.0905,214.9563 116.9584,215.6327 116.8396,216.2132 C123.1594,213.0415 135.2299,219.6533 137.3372,216.1123 C137.3372,216.1123 137.3834,218.0217 137.3834,218.5804 C137.3834,219.1394 137.0583,219.0926 135.7104,219.3259 C134.3628,219.5589 124.5575,217.556 122.9774,217.2765 C121.4711,217.01 118.1064,217.209 116.4668,217.8743 C116.4459,217.95 116.4271,218.0092 116.4118,218.0509 C116.2386,218.5135 115.9631,219.6941 115.7936,220.4516 C116.3143,220.3903 116.9606,220.2795 117.0499,220.0998 C117.288,219.6244 119.1904,219.4382 121.3665,219.5136 C123.3372,219.5827 125.5961,219.8078 126.9584,220.1593 C128.4574,220.5457 131.2297,221.0213 133.727,221.2589 C135.6106,221.4389 137.3179,221.4842 138.1445,221.2529 C138.6737,221.1052 139.1361,220.8943 139.5051,220.6423 C139.8569,220.4031 140.1177,220.1301 140.2634,219.8461 C140.3901,219.5995 140.4275,219.3398 140.3564,219.0853 C140.3232,218.9662 140.2645,218.8432 140.1792,218.7179 C139.2631,217.3731 139.3223,216.5284 140.0536,216.0295 C141.3009,215.1794 144.9717,216.0281 148.5686,216.8589 C149.0879,216.9791 149.5939,217.0968 149.9911,217.186 C154.281,218.1552 158.7872,217.4925 160.3148,217.2124 C160.1445,216.646 159.8848,215.7727 159.7686,215.3067 C159.7621,215.2826 159.7561,215.252 159.7496,215.2148 C156.1176,216.1111 148.3716,214.9356 146.6317,214.8075 C144.7257,214.6683 141.6124,214.2026 140.0789,214.2956 C138.5453,214.3888 137.3372,215.46 137.3372,215.46 L137.3369,214.5751 C131.0298,216.652 123.9055,211.4646 117.5868,214.0626 C117.4536,214.117 117.334,214.1768 117.2262,214.24 L117.2262,214.24 Z" id="Fill-1"></path>
            <path d="M28.6796,62.1236 L29.0089,61.9257 C29.181,61.9838 29.6085,62.1372 30.278,62.3821 C30.9476,62.6264 31.7886,62.9294 32.7929,63.2965 C33.7969,63.6633 34.8849,64.067 36.061,64.4919 C37.2371,64.9168 38.4038,65.3483 39.5853,65.7828 C40.7611,66.2074 41.8587,66.6057 42.8721,66.9671 C43.8761,67.3339 44.7262,67.6313 45.4142,67.8651 C46.0925,68.1044 46.5296,68.2521 46.7195,68.2997 C47.0302,68.4236 47.6853,68.6645 48.6601,69.0242 C49.6389,69.3695 50.8442,69.8018 52.2794,70.3072 C53.7117,70.8276 55.2609,71.377 56.9231,71.9706 C58.5856,72.5633 60.268,73.1693 61.9509,73.7754 C63.9204,74.4455 65.7241,75.0657 67.3878,75.6207 C69.0429,76.1809 70.4129,76.6392 71.5122,76.9986 C72.6024,77.3637 73.2844,77.588 73.5605,77.6957 C73.9171,77.7923 74.312,77.8286 74.7366,77.8096 C75.151,77.7969 75.5626,77.6744 75.9521,77.4525 C76.1661,77.3122 76.2775,77.1452 76.2809,76.9437 C76.2843,76.743 76.2239,76.5182 76.1049,76.2786 C75.9898,76.0244 75.8503,75.7727 75.6879,75.5218 L66.9901,61.0458 C66.3086,59.9128 65.5855,58.6678 64.8185,57.2877 C64.048,55.9225 63.2591,54.5063 62.4717,53.051 C61.6848,51.596 60.9191,50.1778 60.1855,48.7905 C59.4511,47.4027 58.7829,46.1254 58.1806,44.9575 C57.5782,43.7891 57.077,42.8094 56.6757,42.018 C56.1484,40.9541 55.8922,40.1131 55.9043,39.4713 C55.9111,38.8202 56.185,38.3449 56.7389,38.0245 L58.2744,37.1021 C58.3838,37.0364 58.4331,36.9321 58.4277,36.7983 C58.4277,36.6741 58.3725,36.5205 58.2738,36.3555 L57.5164,35.0946 C57.4705,34.998 57.3843,34.9373 57.2528,34.9047 C57.1303,34.8662 56.962,34.918 56.7369,35.0405 C56.5271,35.1669 56.2272,35.3716 55.8414,35.6406 C55.4414,35.9062 54.9091,36.2631 54.2316,36.7078 C53.5442,37.158 52.6598,37.7144 51.5722,38.3681 C50.338,39.1094 49.2948,39.7114 48.4464,40.184 C47.5983,40.6557 46.9146,41.0295 46.4196,41.3022 C45.9094,41.571 45.5511,41.7617 45.332,41.8935 C45.1216,42.02 45.0105,42.1237 45.0026,42.2156 C45.0009,42.3162 45.0485,42.4372 45.1562,42.596 L45.9145,43.8568 C45.9873,43.9997 46.0769,44.1074 46.169,44.1766 C46.2512,44.2514 46.3788,44.2367 46.5398,44.1528 L48.295,43.098 C48.9708,42.6918 49.6837,42.5126 50.4247,42.5651 C51.1685,42.6028 51.8505,42.8894 52.4532,43.4359 C52.6232,43.5946 52.8869,43.909 53.2287,44.375 C53.5748,44.8266 53.966,45.3751 54.4071,46.0055 C54.8544,46.6453 55.2969,47.2998 55.7612,47.9903 C56.2298,48.6669 56.6584,49.3172 57.0739,49.9258 C57.4747,50.5307 57.8209,51.0446 58.0969,51.4627 C58.6715,52.3369 59.2645,53.2613 59.8706,54.2282 C60.4673,55.2011 61.1354,56.2918 61.869,57.4926 C62.5998,58.7081 63.4397,60.1067 64.4009,61.706 L67.8271,67.4088 L67.608,67.5403 C67.3319,67.4326 66.7463,67.2245 65.8503,66.892 C64.9542,66.5601 63.8717,66.166 62.6057,65.6952 C61.3454,65.2329 60.0123,64.753 58.6333,64.2385 C57.2457,63.7294 55.9265,63.2529 54.6724,62.8002 C53.4212,62.3325 52.3585,61.9512 51.488,61.6408 C50.6174,61.331 50.0616,61.13 49.8311,61.0569 C49.5292,60.9273 48.922,60.6821 48.0354,60.3448 C47.1425,59.9981 46.0579,59.58 44.7866,59.0998 C43.5158,58.6199 42.1512,58.1086 40.7027,57.5606 C39.2449,57.0192 37.8023,56.4806 36.3739,55.9457 C34.9455,55.4108 33.6306,54.9193 32.4253,54.4867 C31.2237,54.0394 30.2341,53.6766 29.4571,53.3968 C28.6847,53.1272 28.2277,52.9665 28.0817,52.93 C27.8272,52.8591 27.5681,52.8407 27.3172,52.8798 C27.076,52.9121 26.7891,53.0354 26.4691,53.2273 C26.3047,53.326 26.0995,53.462 25.8639,53.6278 C25.6193,53.8005 25.3231,53.9907 24.967,54.2047 C24.6544,54.4298 24.3049,54.6769 23.9043,54.9423 C23.5191,55.2113 23.086,55.4843 22.6199,55.764 C21.4229,56.4837 20.4361,57.0765 19.6441,57.5397 C18.8581,58.0119 18.2072,58.3781 17.7066,58.6415 C17.2058,58.9051 16.8151,59.103 16.5476,59.2382 C16.2664,59.3706 16.0688,59.4766 15.9409,59.5534 C15.7215,59.6852 15.6779,59.8607 15.8097,60.0801 L16.6998,61.5606 C16.7653,61.6697 16.8421,61.7361 16.9351,61.767 C17.0226,61.7885 17.1329,61.7851 17.2591,61.7466 L19.0134,60.6921 C19.8326,60.2127 20.7173,60.0293 21.6647,60.1569 C22.606,60.2754 23.5355,60.6623 24.4225,61.3103 C25.3188,61.9535 26.1094,62.8348 26.7829,63.9349 L30.9674,70.8988 C32.2909,73.101 33.5353,75.2142 34.6904,77.2189 C35.8546,79.2187 36.8796,81.0284 37.7842,82.6368 C38.6941,84.2545 39.4368,85.5743 39.9955,86.6067 C40.5683,87.6433 40.9193,88.2902 41.061,88.5666 C41.6336,89.7271 42.0256,90.7104 42.2161,91.5041 C42.4163,92.2918 42.433,92.9407 42.2796,93.4311 C42.1229,93.9362 41.8082,94.3234 41.3283,94.6001 L39.4634,95.7203 C39.3591,95.7952 39.299,95.8814 39.2936,95.9964 C39.2831,96.1025 39.2936,96.1832 39.3322,96.247 L40.1559,97.6181 C40.271,97.81 40.3756,97.9212 40.4742,97.9614 C40.5732,98.002 40.6718,97.9796 40.7815,97.9135 C40.9366,97.8203 41.2328,97.6295 41.6877,97.3318 C42.143,97.0334 42.6623,96.6963 43.2547,96.3162 C43.8466,95.9349 44.4291,95.5599 44.985,95.2013 C45.55,94.8371 46.0194,94.5423 46.3853,94.3226 C46.9154,94.0043 47.4965,93.6675 48.1292,93.3126 C48.7613,92.9571 49.3759,92.6127 49.9717,92.2802 C50.567,91.9466 51.0903,91.6572 51.5308,91.4179 C51.9616,91.1829 52.2598,91.0165 52.4058,90.9289 C52.6164,90.8022 52.7281,90.6985 52.7295,90.5976 C52.7369,90.506 52.6893,90.3855 52.581,90.2265 L51.8236,88.9651 C51.7499,88.8228 51.6606,88.7151 51.56,88.651 C51.4596,88.5872 51.2989,88.6094 51.0883,88.7358 L49.6627,89.5924 C49.0139,89.9822 48.3959,90.1542 47.8361,90.0924 C47.2621,90.027 46.7096,89.7492 46.1642,89.2562 C45.6245,88.7721 45.0593,88.0793 44.483,87.1818 C44.1919,86.7597 43.6794,86.01 42.9543,84.9286 C42.2207,83.8514 41.3221,82.501 40.2642,80.8852 C39.21,79.2553 38.0347,77.4238 36.7481,75.3857 C35.4563,73.3388 34.1051,71.1528 32.6994,68.813 L28.6796,62.1236 Z M83.9665,54.6738 L98.2171,48.625 C98.7548,48.4192 99.1469,48.1952 99.3853,47.9668 C99.614,47.7423 99.6443,47.4044 99.4655,46.9826 C99.2532,46.4823 98.8937,45.8819 98.3727,45.1996 C97.8574,44.5034 97.2074,43.818 96.4191,43.1331 C95.6302,42.4486 94.7347,41.868 93.7131,41.3978 C92.7009,40.9241 91.59,40.6542 90.3946,40.5941 C89.1995,40.534 87.9276,40.7843 86.5744,41.3354 C84.8727,42.046 83.4823,42.8103 82.3669,43.6196 C81.2608,44.4252 80.3812,45.3541 79.7193,46.3879 C79.0484,47.4256 78.543,48.6363 78.1784,50.042 C77.8068,51.4857 77.6132,52.7491 77.5789,53.8407 C77.5579,54.9386 77.6707,55.9681 77.9205,56.939 C78.1705,57.9099 78.5285,58.9164 78.9917,59.9817 C79.4951,61.1935 80.0748,62.3135 80.7095,63.3186 C81.3487,64.3329 82.1228,65.2553 83.0407,66.0816 C83.9551,66.8977 85.0836,67.6466 86.4136,68.298 C87.9268,69.0228 89.4736,69.3394 91.0659,69.2428 C92.6439,69.1402 94.3728,68.6841 96.2433,67.8785 C97.8543,67.1715 99.1659,66.3602 100.194,65.4256 C101.2179,64.4814 102.0195,63.504 102.5944,62.4841 C103.1729,61.4736 103.5879,60.4874 103.8416,59.5571 C104.0913,58.6171 104.2523,57.7959 104.3105,57.0878 C104.349,56.6317 104.3249,56.329 104.2342,56.1708 C104.1438,56.0118 104.0012,55.9216 103.811,55.91 L102.7026,55.7547 C102.5561,55.7363 102.4339,55.7768 102.3285,55.8556 C102.2233,55.9355 102.1556,56.1033 102.1213,56.3497 C101.9798,57.1621 101.6915,57.9563 101.2641,58.7515 C100.8428,59.5327 100.2331,60.2779 99.4454,60.9594 C98.6522,61.6556 97.6587,62.2625 96.446,62.7894 C95.5917,63.1514 94.6265,63.3062 93.5603,63.2495 C92.4877,63.2064 91.3969,62.9283 90.2957,62.4348 C89.1797,61.9351 88.1465,61.1924 87.1756,60.2147 C86.2047,59.2365 85.3886,57.9966 84.7412,56.4988 L83.9665,54.6738 Z M83.2437,52.479 C82.7844,50.334 82.7847,48.5612 83.2408,47.1515 C83.6963,45.7424 84.6434,44.7259 86.086,44.1134 C86.8558,43.7987 87.5574,43.7324 88.1924,43.8917 C88.8276,44.0507 89.4005,44.3639 89.8889,44.8053 C90.3912,45.2515 90.8141,45.7557 91.1617,46.3026 C91.5055,46.8406 91.7799,47.3491 91.9619,47.8049 C92.0617,48.0405 91.9727,48.322 91.7011,48.6105 C91.4344,48.9093 90.9871,49.1919 90.3685,49.4541 L83.2437,52.479 Z M120.8342,58.6375 C121.1477,58.5695 121.4059,58.4175 121.6154,58.2004 C121.8254,57.9833 121.9726,57.6502 122.061,57.21 L125.0207,38.4081 L125.3934,38.3151 L135.779,53.5266 C136.071,53.9482 136.3286,54.2353 136.5563,54.3983 C136.7844,54.5613 137.0452,54.5953 137.3451,54.5208 C137.5957,54.4686 137.8316,54.3549 138.0331,54.1948 C138.2324,54.0247 138.3747,53.7585 138.4475,53.3883 C138.502,53.0782 138.5932,52.5169 138.7151,51.6844 C138.837,50.8522 138.9901,49.8357 139.1638,48.6389 C139.3382,47.4421 139.5278,46.1305 139.7356,44.7163 C139.9428,43.3021 140.1537,41.8539 140.3691,40.3827 C140.5849,38.9118 140.798,37.4738 141.0027,36.0933 C141.2085,34.7128 141.4001,33.4559 141.5688,32.3258 C141.7377,31.1962 141.8888,30.2573 142.0025,29.526 C142.1297,28.8017 142.2051,28.3544 142.2494,28.1787 C142.3608,27.7883 142.6145,27.4397 143.0051,27.1551 C143.3849,26.8733 143.8376,26.6619 144.3447,26.5354 L145.2756,26.3033 C145.4307,26.2647 145.5319,26.1845 145.5735,26.0861 C145.6246,25.9852 145.6251,25.8534 145.5866,25.6986 L145.2459,24.3329 C145.215,24.2088 145.158,24.1129 145.0653,24.0486 C144.9618,23.9865 144.8272,23.9755 144.6412,24.022 C144.4448,24.071 144.1704,24.1617 143.8263,24.2805 C143.4824,24.3987 143.0218,24.5359 142.4396,24.7136 C141.8684,24.8896 141.1288,25.096 140.2186,25.3228 C138.7262,25.6842 137.518,25.9518 136.6161,26.1216 C135.7025,26.2948 135.1574,26.3977 134.9578,26.4365 C134.8025,26.4748 134.6862,26.5371 134.6213,26.6301 C134.5493,26.7364 134.5391,26.8708 134.5853,27.057 L134.926,28.4222 C134.9569,28.5463 135.0136,28.6421 135.0961,28.7096 C135.1789,28.7765 135.2824,28.7949 135.4065,28.764 L136.2751,28.5475 C136.7822,28.421 137.2196,28.4551 137.5915,28.6696 C137.9611,28.8746 138.2247,29.27 138.4027,29.8517 C138.5708,30.4362 138.6114,31.2171 138.5071,32.2104 L137.2125,44.4663 L136.9633,44.5283 L129.0277,32.2665 C128.8103,31.8807 128.7672,31.5295 128.8888,31.2242 C128.9974,30.9113 129.2227,30.7123 129.5405,30.6221 L130.5338,30.3744 C130.72,30.3282 130.8311,30.2454 130.8935,30.142 C130.9451,30.041 130.9451,29.9092 130.9065,29.7545 L130.5814,28.4508 C130.5349,28.2646 130.4524,28.1534 130.3385,28.0936 C130.2171,28.0469 130.0541,28.0548 129.8373,28.1089 C129.6014,28.1787 129.123,28.3306 128.3911,28.5679 C127.6487,28.808 126.5809,29.1076 125.1661,29.4716 C123.1875,29.9534 121.6695,30.2987 120.6221,30.5051 C119.5745,30.7114 118.9358,30.8381 118.7263,30.8792 C118.5401,30.9257 118.4134,30.9901 118.3388,31.0856 C118.2657,31.1919 118.245,31.3285 118.2915,31.5148 L118.6322,32.8805 C118.6708,33.0353 118.73,33.1416 118.8182,33.1861 C118.8981,33.2425 119.0194,33.245 119.1748,33.2068 L119.8574,33.0361 C120.1754,32.946 120.4861,32.9128 120.7885,32.9361 C121.0989,32.9471 121.3781,33.0529 121.6262,33.2547 C122.0111,33.5651 122.3215,33.971 122.5613,34.45 C122.794,34.9416 122.8814,35.4249 122.8193,35.9238 L121.0111,49.2968 L120.6386,49.3898 L112.5479,35.9799 C112.2869,35.5499 112.1769,35.1933 112.2412,34.9243 C112.3059,34.6556 112.4921,34.477 112.8127,34.3973 L113.434,34.2423 C113.6197,34.1958 113.7362,34.1337 113.7906,34.0436 C113.8575,33.9608 113.8604,33.8392 113.8218,33.6841 L113.4817,32.3184 C113.4346,32.1327 113.3731,32.0162 113.2696,31.9541 C113.1789,31.8997 113.0471,31.8989 112.8609,31.9454 C112.5712,32.0179 112.2146,32.1288 111.7673,32.2739 C111.3194,32.4182 110.7559,32.5809 110.0705,32.7841 C109.3952,32.986 108.5627,33.2156 107.5694,33.4633 C106.1003,33.8295 104.9261,34.1003 104.0599,34.2831 C103.1933,34.4665 102.547,34.6054 102.0943,34.6853 C101.6416,34.765 101.295,34.8293 101.0676,34.886 C100.8817,34.9325 100.7649,34.9946 100.7107,35.0853 C100.6484,35.1888 100.6481,35.3206 100.6949,35.5065 L101.0353,36.8725 C101.0662,36.9967 101.1232,37.0919 101.2164,37.1566 C101.2986,37.2237 101.4228,37.2371 101.5781,37.1985 L102.6335,36.9355 C103.1375,36.7988 103.6211,36.7988 104.084,36.9366 C104.5571,37.071 104.9939,37.4125 105.3944,37.961 L119.3301,57.6272 C119.5855,57.9929 119.8418,58.2693 120.0847,58.4501 C120.3378,58.6287 120.5861,58.699 120.8342,58.6375 Z M200.8729,23.8281 C201.3208,23.8094 201.6734,23.8675 201.9209,23.9809 C202.1573,24.0934 202.2886,24.2833 202.294,24.5713 L202.3251,26.3622 C202.3285,26.5646 202.3359,26.9802 202.3362,27.62 C202.3472,28.249 202.3498,29.0271 202.3552,29.9336 C202.3606,30.8503 202.3563,31.832 202.364,32.8663 C202.3606,33.9115 202.3682,34.9453 202.364,35.9584 C202.3609,36.9825 202.356,37.9208 202.3492,38.7632 C202.343,39.6162 202.3336,40.2991 202.3212,40.8218 C202.3209,41.3975 202.2866,41.91 202.2307,42.3374 C202.174,42.7649 202.0306,43.1088 201.8002,43.3474 C201.5805,43.5861 201.2097,43.7205 200.7085,43.729 L197.2548,43.7894 C197.0416,43.793 196.9042,43.8381 196.831,43.9356 C196.7681,44.0218 196.7491,44.1496 196.7519,44.3098 L196.7777,45.7813 C196.78,45.9199 196.8143,46.0469 196.9013,46.1628 C196.9784,46.2785 197.1071,46.3405 197.2993,46.3479 C197.7367,46.34 198.2262,46.3207 198.7487,46.2906 C199.2813,46.2597 199.9097,46.2274 200.645,46.1937 C201.3803,46.1594 202.2752,46.122 203.3303,46.0826 C204.3854,46.0429 205.6539,46.0097 207.146,45.9839 C208.969,45.9519 210.4614,45.9474 211.6242,45.9587 C212.7864,45.9709 213.6938,45.976 214.3656,45.9964 C215.0272,46.0171 215.5173,46.0296 215.8478,46.0239 C216.1035,46.0194 216.2739,45.9522 216.3563,45.834 C216.4505,45.7254 216.4904,45.5647 216.4768,45.3734 L216.4507,43.9022 C216.4488,43.774 216.4147,43.668 216.3385,43.5844 C216.2517,43.5002 216.1231,43.4597 215.9311,43.4631 L213.3729,43.5082 C212.4244,43.5351 211.7588,43.3015 211.3668,42.8074 C210.9637,42.3131 210.7676,41.4953 210.7585,40.3546 C210.7457,39.6085 210.7293,38.6915 210.6998,37.6044 C210.6703,36.5176 210.6397,35.3554 210.6068,34.1192 C210.5748,32.8825 210.5317,31.6576 210.5005,30.4526 C210.4688,29.2374 210.4393,28.1506 210.4107,27.1591 C210.3937,26.1783 210.3693,25.39 210.3594,24.8142 L210.2386,17.9068 C210.2327,17.5547 210.2239,17.0541 210.2227,16.3928 C210.2225,15.7417 210.2094,14.9962 210.2057,14.175 C210.202,13.3535 210.1981,12.5113 210.1938,11.6479 C210.1893,10.7949 210.1859,9.9845 210.1833,9.2274 C210.1808,8.4597 210.1799,7.8197 210.1709,7.2975 C210.172,6.7643 210.1663,6.4233 210.1638,6.2635 C210.1397,5.5171 210.1609,4.8986 210.2383,4.4173 C210.3044,3.9365 210.49,3.5706 210.7735,3.331 C211.068,3.102 211.5244,2.9767 212.1529,2.9654 L214.456,2.9254 C214.765,2.92 214.9776,2.8525 215.0819,2.7329 C215.1757,2.6249 215.2265,2.4642 215.212,2.2726 L215.1885,0.9292 C215.1967,0.7688 215.1409,0.6319 215.0431,0.5264 C214.9348,0.4218 214.7202,0.3614 214.4112,0.3671 C213.9211,0.3867 212.9945,0.4343 211.6307,0.5114 C210.2777,0.5885 208.3918,0.6534 205.9716,0.7064 C203.4346,0.7399 201.4189,0.743 199.9471,0.7152 C198.4754,0.6877 197.4512,0.6738 196.8863,0.673 C196.6731,0.6767 196.5348,0.7217 196.4617,0.8192 C196.3996,0.9051 196.3803,1.0335 196.3831,1.1934 L196.4084,2.6646 C196.4118,2.8562 196.4362,2.9946 196.5016,3.0895 C196.5782,3.1842 196.7176,3.2349 196.9311,3.231 L199.8729,3.1799 C200.3417,3.172 200.6958,3.2933 200.9449,3.5346 C201.1842,3.7758 201.3611,4.1352 201.4654,4.6134 C201.5691,5.0806 201.6329,5.6656 201.6553,6.3477 C201.6683,6.4755 201.6953,6.795 201.7151,7.3168 C201.7452,7.8285 201.778,8.4785 201.8237,9.2455 C201.858,10.0129 201.8943,10.8434 201.9311,11.7281 C201.9779,12.602 202.0147,13.4754 202.0513,14.3388 C202.0873,15.1912 202.1111,15.969 202.1344,16.6618 C202.1678,17.3651 202.1774,17.9085 202.1843,18.3028 L202.2177,20.2221 C202.2341,20.5628 202.1534,20.8092 201.9742,20.9404 C201.7956,21.0714 201.4552,21.1414 200.954,21.1394 L179.8472,21.5085 C179.5595,21.513 179.3659,21.4523 179.2466,21.3055 C179.1267,21.1689 179.0694,20.9458 179.064,20.626 L179.0192,18.0678 C179.0141,17.7798 179.0173,17.3319 179.0173,16.7349 C179.0175,16.1377 179.0269,15.4551 179.0241,14.6767 C179.0317,13.8977 179.0391,13.0975 179.0567,12.2766 C179.064,11.4557 179.0714,10.677 179.0904,9.9409 C179.0992,9.2053 179.1094,8.5862 179.1219,8.074 C179.1346,7.5518 179.1394,7.2207 179.1468,7.0606 C179.1428,6.2292 179.1956,5.5559 179.3036,5.0321 C179.4229,4.5179 179.661,4.1298 180.0295,3.8781 C180.3881,3.6372 180.9511,3.5102 181.7082,3.4971 L184.0105,3.4569 C184.2662,3.4521 184.4357,3.3854 184.5193,3.2667 C184.6131,3.1587 184.6531,2.998 184.6392,2.806 L184.6157,1.463 C184.6233,1.3026 184.5783,1.1651 184.481,1.0602 C184.3937,0.9547 184.2217,0.8938 183.9657,0.8986 C183.5927,0.9051 183.06,0.9357 182.3466,0.9803 C181.6325,1.014 180.6741,1.0625 179.4481,1.116 C178.223,1.169 176.6671,1.2181 174.7591,1.251 C173.2026,1.2787 171.8805,1.2904 170.7928,1.2887 C169.7159,1.2858 168.8193,1.2802 168.1053,1.2711 C167.3907,1.2626 166.8141,1.2402 166.3773,1.2371 C165.9291,1.2237 165.5666,1.2198 165.2891,1.2246 C165.0442,1.2393 164.8752,1.3167 164.7817,1.4573 C164.6986,1.5971 164.6581,1.7363 164.6609,1.8751 L164.6844,3.2188 C164.687,3.3784 164.7321,3.5161 164.8194,3.6213 C164.9172,3.7259 165.0884,3.7761 165.3339,3.7826 L168.1484,3.7335 C168.8193,3.7114 169.3333,3.82 169.7003,4.0587 C170.0555,4.2871 170.2979,4.7092 170.4359,5.3039 C170.5638,5.8986 170.6426,6.7295 170.65,7.7851 C170.6536,7.9872 170.6718,8.4243 170.6837,9.0958 C170.7058,9.7566 170.7307,10.5449 170.7571,11.4511 C170.7832,12.3571 170.8209,13.2846 170.8481,14.2325 C170.8753,15.1813 170.9008,16.0444 170.9255,16.8225 C170.9499,17.6006 170.9598,18.1871 170.9671,18.5922 L171.1097,26.7795 C171.1248,27.61 171.1403,28.5378 171.1477,29.5617 C171.1551,30.5847 171.1627,31.6511 171.1715,32.7495 C171.1797,33.8582 171.178,34.9356 171.1857,36.0014 C171.1931,37.0571 171.1996,38.0486 171.205,38.9441 C171.2203,39.8506 171.2228,40.6075 171.2339,41.2365 C171.2534,41.7371 171.2194,42.2178 171.1418,42.6668 C171.0542,43.1269 170.8898,43.5031 170.6392,43.8058 C170.3778,44.0986 169.9966,44.2542 169.4957,44.2741 L166.1695,44.3319 C165.9246,44.3364 165.7545,44.3713 165.6601,44.4583 C165.5759,44.5343 165.5357,44.6633 165.5391,44.8549 L165.5646,46.3258 C165.5674,46.4857 165.6122,46.6234 165.6995,46.7289 C165.7973,46.8338 165.9691,46.8947 166.2143,46.8905 C166.5238,46.8848 166.9071,46.8675 167.3541,46.8386 C167.8017,46.8094 168.3771,46.7776 169.0801,46.7442 C169.7732,46.711 170.6678,46.6742 171.7331,46.6342 C172.8097,46.5942 174.1204,46.5602 175.6772,46.5333 C177.4148,46.5027 178.8432,46.4993 179.974,46.5112 C181.1044,46.5237 182.0115,46.5288 182.6836,46.5497 C183.3551,46.5699 183.8787,46.582 184.2511,46.5752 C184.5068,46.571 184.6766,46.5041 184.7597,46.3856 C184.8541,46.277 184.8938,46.1163 184.8796,45.925 L184.8538,44.4535 C184.862,44.2936 184.8175,44.1771 184.7203,44.1145 C184.6335,44.0414 184.4623,44.013 184.2064,44.017 L181.9043,44.0575 C181.2008,44.0802 180.6648,43.9189 180.3065,43.5731 C179.9382,43.2386 179.737,42.6878 179.6916,41.9202 C179.6545,41.0253 179.6052,40.0454 179.5652,38.9795 C179.5258,37.914 179.4742,36.8164 179.434,35.7081 C179.3926,34.5895 179.3637,33.5132 179.3243,32.4899 C179.2849,31.4561 179.2582,30.5397 179.2333,29.7185 C179.208,28.9089 179.197,28.2586 179.189,27.7898 L179.1406,25.0396 C179.125,24.7516 179.1856,24.5373 179.3109,24.4069 C179.4368,24.2663 179.6809,24.1977 180.0221,24.192 L200.8729,23.8281 Z M228.8835,32.1962 L244.2796,33.8142 C244.8499,33.8953 245.3015,33.8894 245.6207,33.8052 C245.9296,33.7198 246.1204,33.4398 246.168,32.984 C246.225,32.4426 246.2018,31.7435 246.077,30.8943 C245.9637,30.0354 245.7272,29.1209 245.3695,28.1393 C245.0118,27.1588 244.51,26.216 243.8442,25.3103 C243.1885,24.4052 242.3483,23.6305 241.3318,22.9981 C240.3156,22.3665 239.0814,21.9685 237.6312,21.7948 C235.7978,21.5912 234.2121,21.5853 232.8435,21.752 C231.4857,21.9206 230.266,22.3073 229.1862,22.8901 C228.0963,23.4726 227.0671,24.2864 226.0664,25.3392 C225.0417,26.4212 224.2596,27.4326 223.7003,28.3709 C223.1499,29.3208 222.7499,30.2757 222.4973,31.2463 C222.2453,32.2169 222.0701,33.2706 221.9599,34.4274 C221.8116,35.7305 221.7759,36.9919 221.8442,38.1776 C221.9111,39.375 222.1407,40.557 222.5435,41.7249 C222.9469,42.8823 223.5711,44.0842 224.4192,45.2985 C225.3904,46.6662 226.59,47.6929 228.0291,48.3801 C229.4595,49.0558 231.1926,49.4949 233.2194,49.697 C234.9709,49.86 236.5115,49.7858 237.8639,49.4674 C239.2169,49.1378 240.3919,48.6717 241.3888,48.058 C242.3852,47.4551 243.2265,46.7932 243.8989,46.1027 C244.5735,45.4023 245.1118,44.7619 245.5067,44.1706 C245.761,43.7899 245.8871,43.5135 245.8849,43.3316 C245.882,43.1487 245.8015,43.0005 245.6405,42.8984 L244.7465,42.2252 C244.6268,42.1379 244.501,42.1138 244.3703,42.1322 C244.2393,42.1509 244.0993,42.2646 243.9494,42.4633 C243.4317,43.1054 242.7948,43.6604 242.0354,44.1488 C241.2885,44.6278 240.3936,44.9836 239.3742,45.1982 C238.3427,45.4227 237.1797,45.4717 235.8638,45.3442 C234.9411,45.2472 234.0221,44.9144 233.117,44.3475 C232.1995,43.7905 231.3805,43.018 230.6566,42.0526 C229.9224,41.0746 229.3793,39.9243 229.0043,38.598 C228.6289,37.2722 228.5164,35.7917 228.676,34.1683 L228.8835,32.1962 Z M229.3152,29.9257 C229.9541,27.8275 230.8133,26.2775 231.8959,25.2652 C232.9773,24.2538 234.298,23.8241 235.857,23.9879 C236.6827,24.0854 237.329,24.3681 237.8072,24.8145 C238.2852,25.2615 238.6347,25.8132 238.8478,26.4359 C239.0712,27.0703 239.1959,27.7161 239.2351,28.3632 C239.275,29.0002 239.2682,29.5784 239.2061,30.0651 C239.1795,30.3197 238.9655,30.5224 238.5879,30.6434 C238.2095,30.7749 237.6814,30.805 237.0133,30.7347 L229.3152,29.9257 Z M255.1476,51.2238 C255.8954,51.8831 256.8756,52.5337 258.0937,53.1562 C259.3097,53.7889 260.8407,54.3467 262.69,54.8184 C264.2131,55.1877 265.7311,55.2691 267.2232,55.0585 C268.7281,54.8405 270.1653,54.4079 271.5435,53.7296 C272.9186,53.0615 274.1746,52.2097 275.3096,51.1852 C276.4542,50.1631 277.418,49.03 278.2163,47.7675 C279.0119,46.5151 279.5823,45.1965 279.9357,43.8231 C280.3612,42.1158 280.5699,40.5751 280.5843,39.1938 C280.586,37.8207 280.4225,36.6262 280.0704,35.6154 C279.684,34.4311 279.1225,33.3355 278.3948,32.3294 C277.6709,31.3138 276.7986,30.4484 275.7714,29.7202 C274.7523,29.0038 273.5983,28.4746 272.3083,28.1421 C271.2427,27.8759 270.1664,27.7399 269.0723,27.72 C267.9761,27.7104 266.9159,27.8192 265.8875,28.0687 C264.8506,28.3043 263.8987,28.6827 263.0146,29.1875 L264.9342,21.7548 C265.2151,20.6706 265.517,19.548 265.8271,18.3949 C266.1463,17.244 266.4485,16.1212 266.7529,15.0322 C267.0577,13.9437 267.3357,12.9583 267.5812,12.0637 C267.8366,11.1714 268.0402,10.4417 268.1924,9.8757 C268.3551,9.3116 268.4509,8.9728 268.4792,8.8591 C268.6187,8.5641 268.6493,8.3084 268.5793,8.1037 C268.5175,7.9127 268.354,7.7726 268.1056,7.7108 C267.8681,7.6519 267.5832,7.6465 267.2632,7.6984 C266.9528,7.7531 266.5443,7.8494 266.0579,7.9915 C265.2906,8.1627 264.388,8.3441 263.3514,8.5363 C262.304,8.7256 261.2359,8.9102 260.14,9.0763 C259.0436,9.2424 258.0452,9.3668 257.122,9.4556 C256.8688,9.4587 256.6826,9.5003 256.5638,9.5803 C256.4581,9.6523 256.3957,9.7251 256.3776,9.7971 L256.2231,10.4182 C256.1817,10.5401 256.21,10.6458 256.3059,10.7467 C256.3991,10.8579 256.6214,10.9789 256.9683,11.132 L257.6512,11.5654 C258.1112,11.8341 258.4792,12.1238 258.7689,12.4158 C259.056,12.7177 259.2601,13.0879 259.3721,13.5221 C259.4809,13.9663 259.5045,14.5327 259.433,15.2181 C259.3602,15.9035 259.1881,16.7723 258.9276,17.8169 L253.4032,40.5043 C253.1217,41.6316 252.8382,42.7697 252.5412,43.9155 C252.2472,45.0508 251.9686,46.1237 251.7106,47.1144 C251.4399,48.1128 251.2075,48.9558 251.0141,49.644 C250.8208,50.3317 250.6731,50.7898 250.5858,51.0098 C250.5546,51.1336 250.5416,51.2294 250.5444,51.3071 C250.5549,51.3973 250.6116,51.4772 250.71,51.5679 L251.517,52.0328 C251.6412,52.064 251.7656,52.0949 251.9051,52.1076 C252.034,52.1178 252.1922,52.1025 252.3708,52.0478 L255.1476,51.2238 Z M262.4114,31.6077 C263.2595,31.1599 264.1306,30.8826 265.0354,30.7789 C265.9507,30.6777 266.838,30.7338 267.717,30.9527 C269.362,31.3628 270.658,32.1588 271.6104,33.3193 C272.5733,34.4821 273.1561,35.9793 273.3713,37.8023 C273.5876,39.6247 273.3999,41.7427 272.7987,44.153 C272.5852,45.0556 272.3216,45.8915 272.0458,46.6464 C271.7589,47.3993 271.408,48.1026 271.0021,48.7596 C270.5837,49.4243 270.0695,50.0769 269.4518,50.7025 C268.7672,51.3783 268.0589,51.8831 267.3244,52.1836 C266.5877,52.4943 265.8433,52.6601 265.1114,52.6862 C264.3795,52.7123 263.6839,52.638 263.0143,52.46 C262.3133,52.274 261.6826,51.9852 261.1466,51.5767 C260.6117,51.1688 260.1664,50.7062 259.8273,50.1713 C259.4778,49.633 259.2391,49.0904 259.1173,48.5212 C259.045,48.0201 259.0237,47.4874 259.0285,46.9392 C259.0438,46.3935 259.113,45.7628 259.2187,45.0746 C259.3267,44.3761 259.4897,43.5487 259.7032,42.6025 C259.9169,41.656 260.1854,40.5357 260.5077,39.2429 L262.4114,31.6077 Z M285.0285,57.2219 C284.8207,57.7925 284.5313,58.1522 284.156,58.3107 C283.79,58.4728 283.366,58.4547 282.875,58.2761 L280.7708,57.5102 C280.5608,57.4336 280.4097,57.4124 280.3,57.4637 C280.1946,57.5042 280.1206,57.6136 280.0557,57.7939 L279.574,59.1163 C279.5191,59.2668 279.5089,59.3881 279.5573,59.4734 C279.5919,59.5659 279.6908,59.6356 279.8414,59.6903 C280.0857,59.768 280.808,59.9964 281.998,60.3734 C283.1888,60.7496 284.8329,61.3146 286.9402,62.07 C289.141,62.8824 290.8732,63.5463 292.1273,64.0602 C293.3813,64.5733 294.1115,64.8729 294.3287,64.9633 C294.4795,65.0183 294.6002,65.0282 294.6858,64.98 C294.778,64.9454 294.848,64.8457 294.9024,64.6957 L295.4061,63.313 C295.4605,63.1627 295.4707,63.0414 295.4121,62.9524 C295.3676,62.8569 295.2584,62.7829 295.0779,62.7174 L292.4331,61.7548 C291.8251,61.5555 291.4594,61.2187 291.3378,60.7431 C291.202,60.274 291.3123,59.5653 291.6686,58.6171 L295.8914,47.0157 C295.99,46.745 296.1295,46.4556 296.3072,46.1228 C296.485,45.79 296.6928,45.4692 296.934,45.1486 C297.1718,44.8376 297.419,44.5646 297.6852,44.3328 C298.2816,43.846 298.8666,43.5484 299.4358,43.4495 C299.9951,43.3466 300.4668,43.3596 300.8441,43.5082 C301.1446,43.6173 301.4343,43.7573 301.6894,43.9297 C301.951,44.1151 302.1775,44.3339 302.3527,44.6015 C302.5486,44.8093 302.8094,45.0289 303.1135,45.2532 C303.4316,45.4714 303.8035,45.6631 304.2216,45.8266 C304.7556,46.0097 305.3254,46.0352 305.9252,45.9134 C306.5259,45.7915 307.0826,45.5409 307.5778,45.1761 C308.0671,44.7982 308.4307,44.3296 308.6487,43.7621 C308.8568,43.191 308.9089,42.6427 308.8225,42.1005 C308.7397,41.5486 308.5064,41.0667 308.1342,40.6245 C307.768,40.1967 307.2544,39.862 306.6169,39.6187 C305.2806,39.1437 303.8332,39.1612 302.2546,39.6647 C300.6896,40.1616 299.086,41.076 297.434,42.4032 L297.1936,42.3156 L298.228,37.791 C298.2671,37.5894 298.2759,37.4108 298.2501,37.2314 C298.2212,37.0619 298.126,36.9479 297.9496,36.8723 C297.779,36.8102 297.6081,36.7824 297.4428,36.7674 C297.2846,36.7665 297.1026,36.7682 296.9003,36.7626 L288.3796,37.5418 C288.1661,37.5662 288.0168,37.6027 287.9178,37.6572 C287.8084,37.7082 287.7452,37.7878 287.7018,37.9077 L287.5706,38.2683 C287.5266,38.3885 287.5241,38.49 287.5785,38.5889 C287.6193,38.6946 287.7174,38.7987 287.8759,38.9243 L288.7396,39.9195 C289.2271,40.449 289.5648,40.957 289.7569,41.4579 C289.9523,41.9491 290.0177,42.5174 289.9398,43.1357 C289.8587,43.7647 289.6591,44.5312 289.3173,45.4391 L285.0285,57.2219 Z" id="Fill-2"></path>
            <path d="M325.7629,48.6766 C324.9751,48.2973 324.0834,47.9642 323.1074,47.6856 C322.1317,47.4066 321.0636,47.2505 319.9181,47.2102 C318.7667,47.1558 317.545,47.3032 316.2323,47.6207 C314.6315,48.0269 313.2213,48.6284 311.9698,49.4207 C310.7277,50.2178 309.6737,51.1152 308.8182,52.092 C307.9625,53.0694 307.3159,54.027 306.8742,54.9737 C306.3192,56.1385 305.9065,57.2519 305.6111,58.3138 C305.3254,59.3805 305.1939,60.4956 305.2148,61.6351 C305.2369,62.7741 305.4382,64.033 305.8144,65.42 C306.2024,66.8597 306.7421,68.1234 307.444,69.1915 C308.1464,70.2598 308.9824,71.191 309.9623,71.9657 C310.9422,72.7407 312.0384,73.4159 313.2604,73.9741 C315.2268,74.8795 317.2003,75.3648 319.21,75.4195 C321.2054,75.4787 323.123,75.1261 324.9471,74.342 C326.6309,73.6331 328.15,72.6704 329.4862,71.4705 C330.8171,70.2556 331.8803,68.834 332.6511,67.2058 C333.4488,65.4951 333.8827,63.7328 333.9329,61.9093 C333.9828,60.086 333.6497,58.1774 332.9226,56.1796 C332.5669,55.2257 332.0742,54.29 331.4534,53.3767 C330.8219,52.4594 330.0455,51.6028 329.1024,50.7983 C328.1698,49.9989 327.0532,49.29 325.7629,48.6766 Z M314.8597,71.7554 C313.7239,71.214 312.8862,70.5649 312.3737,69.7964 C311.8618,69.0282 311.5466,68.1401 311.4423,67.1267 C311.313,66.0663 311.3093,65.0651 311.4272,64.1316 C311.5449,63.1985 311.7674,62.2667 312.1036,61.318 C312.4403,60.3692 312.8749,59.3368 313.4024,58.2296 C314.0561,56.8287 314.7058,55.6373 315.3708,54.6653 C316.0307,53.6789 316.7243,52.873 317.4699,52.2329 C318.2154,51.5923 319.0408,51.0835 319.9513,50.6957 C320.7008,50.3748 321.4267,50.2308 322.1431,50.2594 C322.8591,50.2872 323.5848,50.4726 324.3331,50.8334 C325.01,51.1489 325.5877,51.7011 326.086,52.4739 C326.5796,53.2574 326.9209,54.2163 327.119,55.3558 C327.3024,56.5005 327.2947,57.7789 327.0804,59.1968 C326.867,60.6141 326.3925,62.1343 325.6589,63.7334 C324.9649,65.2213 324.1908,66.5541 323.3452,67.7364 C322.5048,68.9089 321.6053,69.8777 320.6628,70.638 C319.7152,71.3846 318.7599,71.8685 317.7743,72.091 C316.7924,72.3039 315.8212,72.1919 314.8597,71.7554 Z M343.1566,62.3489 C342.961,62.2979 342.7745,62.2914 342.6268,62.3223 C342.4646,62.3574 342.341,62.4297 342.2713,62.5371 L341.9927,62.966 C341.9226,63.0734 341.8804,63.1985 341.8934,63.334 C341.8923,63.4729 341.9473,63.6228 342.074,63.7813 L342.3631,64.2751 C342.8215,65.0174 343.103,65.759 343.2008,66.509 C343.3017,67.2738 343.1041,68.0483 342.5959,68.8502 L334.7564,80.9209 C334.5619,81.2013 334.3513,81.3697 334.1123,81.4434 C333.8708,81.5023 333.622,81.4935 333.3762,81.423 C333.1205,81.3459 332.8886,81.2336 332.665,81.0882 L331.5923,80.3914 C331.3863,80.2579 331.2261,80.1919 331.0986,80.2111 C330.9871,80.2273 330.8811,80.3112 330.7768,80.4722 L330.1149,81.4916 C330.01,81.6526 329.95,81.8039 329.9457,81.9284 C329.9355,82.0616 329.9809,82.1671 330.0886,82.2371 C330.2552,82.3329 330.791,82.6427 331.6967,83.1674 C332.6108,83.6972 333.898,84.4949 335.558,85.5601 C337.1525,86.6084 338.3337,87.4134 339.118,87.9869 C339.8939,88.5541 340.3503,88.8883 340.4965,88.996 C340.6575,89.1009 340.7996,89.1168 340.9351,89.0654 C341.0555,89.0158 341.1698,88.8996 341.2741,88.7386 L341.9014,87.7729 C342.0323,87.5909 342.0774,87.4423 342.0434,87.3187 C342.0187,87.2003 341.8929,87.0809 341.6783,86.9417 L340.7125,86.3144 C340.3369,86.0706 340.1822,85.7413 340.219,85.3328 C340.27,84.9209 340.4855,84.4127 340.8778,83.8282 L348.0548,72.7762 C348.5277,72.0284 349.0674,71.3741 349.6785,70.8049 C350.2897,70.2355 350.9453,69.8726 351.6557,69.6986 C352.3403,69.5841 352.9608,69.5682 353.4999,69.6382 C354.0541,69.7054 354.5343,69.827 354.9473,69.9934 C355.36,70.1601 355.7149,70.3389 355.9947,70.5334 C356.3941,70.7803 356.758,71.0419 357.0894,71.2953 C357.4296,71.5547 357.7201,71.8702 357.982,72.2308 C358.2343,72.5857 358.4322,73.0449 358.5867,73.59 C358.7746,74.2204 358.8322,74.8171 358.7477,75.3976 C358.6598,75.9637 358.46,76.546 358.1567,77.1494 C357.8446,77.7478 357.4588,78.4004 356.9857,79.1096 L352.9792,85.2795 C352.2878,86.3436 351.6747,87.2677 351.1106,88.058 C350.5522,88.8401 350.0167,89.5471 349.4886,90.1834 C349.119,90.6163 348.7819,90.881 348.4752,90.9615 C348.1657,91.0267 347.9049,90.9978 347.6872,90.8439 L346.614,90.1469 C346.3549,89.9788 346.1585,89.8889 346.0315,89.9082 C345.9016,89.913 345.7874,89.9915 345.6919,90.1579 L345.0997,91.0701 C344.96,91.285 344.8823,91.4627 344.8843,91.6169 C344.8775,91.7646 344.9495,91.8885 345.1105,91.9928 C345.2772,92.0877 345.8044,92.3925 346.7095,92.9166 C347.6064,93.4353 348.857,94.2095 350.4728,95.2461 C351.7158,96.0531 352.732,96.7391 353.5197,97.2879 C354.3069,97.8378 354.9127,98.2562 355.3331,98.568 C355.7537,98.8787 356.0281,99.0825 356.1622,99.1695 C356.3232,99.2744 356.4479,99.3172 356.5602,99.3011 C356.6574,99.288 356.7484,99.207 356.8354,99.0732 L357.6368,97.839 C357.7241,97.7046 357.7434,97.5779 357.6793,97.4597 C357.622,97.3333 357.478,97.202 357.2371,97.0455 L355.7347,96.0699 C355.3983,95.8641 355.167,95.5741 355.0468,95.1908 C354.9416,94.805 355.0632,94.3243 355.4226,93.7313 C355.6608,93.3648 355.9831,92.8877 356.3697,92.3125 C356.7561,91.7371 357.1716,91.1169 357.5954,90.4641 C358.0285,89.8172 358.4435,89.197 358.8208,88.6159 L363.8379,80.8903 C364.3229,80.1627 364.6783,79.4398 364.915,78.7037 C365.1517,77.9672 365.2393,77.1854 365.1823,76.3342 C365.1242,75.4838 364.8878,74.5166 364.4757,73.448 C364.1843,72.5848 363.699,71.7866 363.013,71.0612 C362.321,70.3454 361.5177,69.6836 360.5908,69.0942 C359.7806,68.5809 358.9538,68.209 358.0966,67.9828 C357.2243,67.7597 356.3564,67.6284 355.4626,67.5944 C354.746,67.5236 354.0306,67.5292 353.3159,67.6117 C352.6019,67.6942 351.9584,67.8232 351.3867,67.9984 L351.0644,67.7894 L352.4471,64.7212 C352.6189,64.222 352.5435,63.8683 352.2215,63.6591 C352.0605,63.5548 351.8708,63.4947 351.6424,63.474 C351.4113,63.4383 351.1599,63.415 350.8702,63.3915 L343.1566,62.3489 Z" id="Fill-3"></path>
            <path d="M10.6166,432.1208 C10.6166,433.1288 10.6166,434.2071 10.6067,435.386 C10.5965,436.5553 10.5866,437.7246 10.5665,438.9134 C10.556,440.0927 10.5358,441.2013 10.5157,442.2493 C10.4956,443.287 10.4755,444.1845 10.4454,444.9303 C10.425,445.686 10.4049,446.2098 10.3748,446.5126 C10.3241,447.1373 10.2235,447.6413 10.0721,448.024 C9.921,448.407 9.6789,448.6791 9.347,448.8506 C9.0142,449.032 8.5505,449.1128 7.9557,449.1128 L5.3558,449.1128 C5.2348,449.1128 5.1339,449.1426 5.0534,449.2131 C4.9726,449.2735 4.9326,449.3843 4.9326,449.5357 L4.9326,451.0477 C4.9326,451.1988 4.9726,451.3198 5.0534,451.4001 C5.1339,451.4911 5.2348,451.5316 5.3558,451.5316 C5.7793,451.5316 6.3533,451.5115 7.0793,451.4809 C7.8149,451.4508 8.7421,451.4307 9.8606,451.4001 C10.9792,451.37 12.3197,451.3499 13.8816,451.3499 C14.497,451.3499 15.1818,451.3598 15.9375,451.3799 C16.7037,451.4001 17.4898,451.4205 18.2957,451.4406 C19.1024,451.4607 19.8882,451.4809 20.6547,451.5007 C21.4104,451.5208 22.0952,451.5316 22.7101,451.5316 C24.9574,451.5316 26.9124,451.4607 28.5752,451.3096 C30.2386,451.1481 31.6593,450.9162 32.8485,450.6041 C34.0376,450.292 35.0558,449.8986 35.8923,449.4147 C36.6177,449.0119 37.2728,448.4676 37.8573,447.7723 C38.4316,447.0866 38.926,446.3107 39.339,445.4538 C39.752,444.5975 40.0646,443.7207 40.2761,442.8139 C40.498,441.9165 40.6086,441.0499 40.6086,440.2239 C40.5987,438.0968 40.1752,436.2531 39.3188,434.7009 C38.4622,433.1594 37.2325,431.8591 35.61,430.8205 C33.9877,429.7927 32.0324,428.9664 29.7244,428.3723 L29.7244,428.0695 C31.6188,427.3739 33.1711,426.568 34.3806,425.6507 C35.6001,424.7337 36.4967,423.6653 37.0814,422.4461 C37.6657,421.2267 37.948,419.8159 37.948,418.2132 C37.9582,417.0039 37.8071,415.8854 37.5047,414.8674 C37.2124,413.8495 36.7285,412.9322 36.0533,412.1158 C35.3781,411.2995 34.4713,410.5942 33.3528,409.9896 C32.6268,409.5865 31.7197,409.2642 30.6513,409.0323 C29.5733,408.7905 28.374,408.619 27.0335,408.5082 C25.6831,408.4076 24.2524,408.3568 22.7101,408.3568 C21.6117,408.3568 20.503,408.3769 19.4043,408.4076 C18.2957,408.4277 17.2678,408.4577 16.3106,408.4881 C15.3431,408.5181 14.5372,408.5385 13.8816,408.5385 C11.3423,408.5586 9.347,408.5385 7.8854,408.4679 C6.414,408.4076 5.4766,408.367 5.0534,408.3568 C4.8719,408.3568 4.7509,408.3971 4.6809,408.4881 C4.6001,408.5788 4.5698,408.7199 4.5698,408.9008 L4.5698,410.292 C4.5698,410.4732 4.6001,410.5942 4.6809,410.6648 C4.7509,410.7453 4.8719,410.7759 5.0534,410.7759 L6.9883,410.7759 C7.5629,410.7657 8.0567,410.7858 8.4697,410.8462 C8.8832,410.9069 9.2359,411.0477 9.508,411.2697 C9.7798,411.5013 9.9916,411.8638 10.1427,412.3582 C10.294,412.8514 10.3947,413.5371 10.4349,414.4037 C10.4454,414.6256 10.4655,415.0486 10.4755,415.6838 C10.4956,416.3287 10.5058,417.0745 10.5259,417.941 C10.546,418.8079 10.556,419.7048 10.5665,420.6121 C10.5866,421.5289 10.5965,422.3753 10.6067,423.1514 C10.6166,423.9173 10.6166,424.5322 10.6166,424.9857 L10.6166,432.1208 Z M17.9938,433.2096 L17.9938,429.4608 L19.5659,429.4608 C20.6141,429.4403 21.7327,429.5007 22.9218,429.6416 C24.1214,429.7726 25.3004,430.075 26.4595,430.5487 C27.5981,430.992 28.6059,431.6372 29.4724,432.4836 C30.339,433.3303 31.0247,434.3786 31.5083,435.6278 C32.0023,436.8773 32.2538,438.3287 32.2643,439.9818 C32.2538,441.8158 32.0023,443.3579 31.5083,444.5975 C31.0147,445.8371 30.3494,446.8247 29.5027,447.5605 C28.6461,448.2859 27.6886,448.81 26.5998,449.1329 C25.5218,449.4447 24.3831,449.6063 23.1937,449.5964 C21.9144,449.6063 20.886,449.3243 20.1303,448.7698 C19.3643,448.2255 18.8099,447.3491 18.4774,446.1699 C18.1446,444.9804 17.9839,443.4387 17.9938,441.5542 L17.9938,433.2096 Z M17.9938,422.9297 C17.9938,421.6499 18.0037,420.3902 18.0139,419.1605 C18.0238,417.9311 18.044,416.7924 18.0641,415.7442 C18.0839,414.6863 18.1046,413.7988 18.1248,413.0533 C18.1446,412.3177 18.1551,411.7935 18.1749,411.5013 C18.2157,411.2598 18.3059,411.0477 18.457,410.8763 C18.6083,410.7152 18.7696,410.5942 18.9613,410.5338 C19.2133,410.4732 19.495,410.4431 19.8278,410.423 C20.1504,410.4128 20.4628,410.4128 20.7749,410.4128 C21.39,410.4128 22.0952,410.4732 22.8819,410.6143 C23.6775,410.7453 24.484,410.9672 25.3205,411.2799 C26.1468,411.5917 26.9326,412.0053 27.6684,412.5291 C28.3136,413.0229 28.8275,413.5978 29.2204,414.2625 C29.6136,414.9275 29.8956,415.6433 30.0671,416.399 C30.2485,417.155 30.3293,417.9212 30.3293,418.6968 C30.339,419.584 30.2284,420.4605 30.0271,421.3276 C29.8151,422.1837 29.4826,423.0003 29.0191,423.7662 C28.5557,424.5322 27.9511,425.2176 27.1846,425.8324 C26.7412,426.195 26.1871,426.5073 25.5218,426.7698 C24.867,427.0317 24.1314,427.233 23.3249,427.3739 C22.5185,427.5153 21.6723,427.5856 20.7749,427.5856 C20.3018,427.5856 19.838,427.5856 19.3842,427.5757 C18.9312,427.5757 18.4675,427.5556 17.9938,427.5253 L17.9938,422.9297 Z M59.9587,448.3868 C60.4021,449.6766 61.0674,450.614 61.9543,451.2087 C62.8512,451.7932 63.8793,452.0855 65.0381,452.0756 C65.9146,452.0654 66.6706,451.9344 67.3056,451.6824 C67.9405,451.4307 68.4746,451.1078 68.908,450.7249 C69.3414,450.3524 69.6938,449.9691 69.9662,449.5763 C70.2383,449.1831 70.45,448.8506 70.6011,448.5685 C70.7219,448.276 70.7621,448.054 70.7219,447.903 C70.6921,447.7621 70.6113,447.6614 70.4804,447.6011 L69.7544,447.1172 C69.6436,447.0565 69.5427,447.0364 69.4525,447.0565 C69.3717,447.0866 69.2708,447.1875 69.1498,447.359 C69.0188,447.611 68.7668,447.8329 68.4139,448.024 C68.0514,448.2156 67.6483,448.3165 67.2146,448.3262 C66.8523,448.3367 66.5598,448.2156 66.3279,447.9531 C66.096,447.7014 65.9146,447.2581 65.8038,446.6435 C65.6932,446.0287 65.6428,445.1721 65.6428,444.0938 L65.6428,441.1914 L65.522,431.6372 C65.5319,431.0929 65.5019,430.5487 65.4412,430.0044 C65.3809,429.4608 65.2499,428.9463 65.0381,428.4525 C64.8264,427.9587 64.5035,427.5054 64.0707,427.1018 C63.7178,426.7797 63.3351,426.4872 62.9014,426.2352 C62.468,425.9832 61.9042,425.7822 61.2185,425.6306 C60.5231,425.4897 59.6262,425.4092 58.5074,425.4092 C57.1774,425.4188 55.9276,425.5603 54.7586,425.8525 C53.5896,426.1448 52.5008,426.5479 51.4931,427.0519 C50.4854,427.5655 49.5581,428.1404 48.7114,428.7952 C48.1068,429.2388 47.5929,429.7425 47.1799,430.2967 C46.7768,430.8514 46.4641,431.4155 46.2527,432.0102 C46.0412,432.6047 45.9304,433.1787 45.9304,433.7535 C45.9403,434.1972 46.0307,434.5699 46.222,434.8721 C46.414,435.1848 46.6557,435.4166 46.9681,435.5677 C47.2808,435.7287 47.6229,435.8095 47.9858,435.8095 C49.2455,435.7993 50.1727,435.4869 50.7476,434.8721 C51.3321,434.2575 51.624,433.4006 51.6141,432.3025 C51.6042,431.8189 51.5639,431.3954 51.4931,431.0224 C51.4123,430.6496 51.3922,430.3273 51.4123,430.0549 C51.4426,429.7726 51.5841,429.5407 51.8562,429.3394 C52.1785,429.0974 52.5515,428.8961 52.9546,428.7345 C53.3577,428.5732 53.7707,428.4525 54.184,428.3723 C54.6072,428.2915 55.0001,428.2512 55.3629,428.2512 C56.0387,428.2413 56.6331,428.3116 57.1471,428.4525 C57.6709,428.5934 58.0842,428.8252 58.3866,429.158 C58.6284,429.4001 58.8096,429.7125 58.9306,430.0849 C59.0616,430.458 59.1526,430.8611 59.2132,431.2843 C59.2733,431.718 59.3136,432.131 59.3541,432.544 L59.3541,435.6888 C58.9105,436.0011 58.3566,436.3336 57.6811,436.6863 C57.0062,437.0389 56.1994,437.4321 55.2626,437.8757 C54.3152,438.3187 53.2267,438.8327 51.9769,439.4373 C50.5358,440.0827 49.417,440.8078 48.6009,441.6044 C47.7845,442.4003 47.2201,443.2468 46.8873,444.1442 C46.565,445.0309 46.4035,445.9479 46.414,446.8751 C46.4239,448.0039 46.6152,448.9614 46.9982,449.7273 C47.3817,450.5032 47.8854,451.088 48.5099,451.4809 C49.1349,451.8737 49.8303,452.0756 50.586,452.0756 C51.1906,452.0855 51.8159,452.0654 52.4506,452.0251 C53.0955,451.9746 53.7605,451.8536 54.4561,451.6518 C55.6251,451.2592 56.6331,450.8056 57.4696,450.2716 C58.3161,449.7373 59.0616,449.1128 59.7172,448.3868 L59.9587,448.3868 Z M59.3541,445.847 C59.3337,446.22 59.1324,446.6234 58.7294,447.0565 C58.326,447.49 57.8322,447.863 57.238,448.185 C56.6533,448.5079 56.0685,448.6995 55.484,448.7497 C54.9902,448.7497 54.5369,448.6187 54.1134,448.3466 C53.7001,448.0742 53.3577,447.6614 53.1057,447.1172 C52.8438,446.5729 52.7125,445.8875 52.7026,445.0612 C52.7125,443.9727 52.9345,443.0554 53.3676,442.3198 C53.801,441.5843 54.3552,440.9694 55.0307,440.4759 C55.7059,439.9719 56.4313,439.5283 57.1975,439.1354 C57.9532,438.7422 58.6786,438.3389 59.3541,437.9259 L59.3541,445.847 Z M81.7271,450.9871 C82.342,451.2691 82.9667,451.4911 83.6221,451.6419 C84.267,451.8034 84.8818,451.9143 85.4765,451.9846 C86.0712,452.0452 86.5953,452.0756 87.0483,452.0756 C88.9033,452.0654 90.6265,451.6923 92.2184,450.9567 C93.8109,450.2211 95.2118,449.1831 96.4114,447.8429 C97.6,446.5024 98.5377,444.9201 99.2126,443.0957 C99.8782,441.2719 100.2206,439.2664 100.2308,437.0791 C100.2308,435.8194 100.1299,434.7009 99.9185,433.7031 C99.707,432.7155 99.3637,431.7985 98.8903,430.9515 C98.4067,430.1054 97.7718,429.2689 96.9653,428.4323 C96.0081,427.4547 94.9601,426.7092 93.8214,426.195 C92.6819,425.6711 91.3924,425.4092 89.9513,425.4092 C88.7718,425.4188 87.6637,425.6005 86.605,425.9534 C85.5567,426.3058 84.6199,426.7593 83.7834,427.3237 C82.9466,427.8884 82.2617,428.5029 81.7271,429.158 L81.6064,429.158 L81.1831,426.195 C81.1531,425.9733 81.0924,425.7922 81.002,425.6408 C80.911,425.4897 80.7903,425.4188 80.6386,425.4092 C80.3974,425.4092 80.1454,425.4494 79.8829,425.5402 C79.621,425.6207 79.3086,425.7417 78.946,425.8931 L72.0525,428.9162 C71.8711,428.9769 71.7506,429.037 71.6797,429.1078 C71.5989,429.1883 71.5689,429.2791 71.5689,429.4001 L71.5689,430.0044 C71.5689,430.1156 71.5989,430.2159 71.6797,430.3069 C71.7506,430.3877 71.8711,430.4883 72.0525,430.6094 L73.3828,431.335 C73.9778,431.6474 74.4307,431.97 74.7233,432.3025 C75.0155,432.635 75.2168,433.0077 75.3078,433.4307 C75.4087,433.8545 75.4492,434.3684 75.4387,434.9628 L75.4387,455.8244 L75.4387,459.7348 C75.4288,460.8131 75.4186,461.7199 75.4087,462.4356 C75.3886,463.1511 75.3582,463.7359 75.3177,464.169 C75.2675,464.6628 75.1366,465.0458 74.9248,465.3182 C74.7233,465.6002 74.4106,465.7414 73.9877,465.7414 L71.8107,465.7414 C71.6899,465.7414 71.5989,465.7816 71.5386,465.8621 C71.4782,465.9426 71.4478,466.0436 71.4478,466.1643 L71.4478,467.4946 C71.4478,467.6763 71.4782,467.7974 71.5587,467.8677 C71.6295,467.9484 71.7506,467.9785 71.9317,467.9785 C72.1735,467.9686 72.8385,467.9382 73.9471,467.8878 C75.0456,467.8373 76.5879,467.8073 78.5832,467.7974 C80.1454,467.7974 81.415,467.8175 82.3927,467.8475 C83.3701,467.8776 84.106,467.8977 84.6097,467.9283 C85.1137,467.9584 85.4462,467.9785 85.5973,467.9785 C85.8393,467.9785 86.0006,467.9484 86.0811,467.8677 C86.1721,467.7974 86.2124,467.6763 86.2022,467.4946 L86.2022,466.225 C86.2022,466.0742 86.1721,465.9531 86.1013,465.8723 C86.0208,465.7816 85.8997,465.7414 85.7183,465.7414 L83.5416,465.7414 C83.2391,465.7513 82.9871,465.7213 82.7757,465.6504 C82.5639,465.5801 82.3927,465.4287 82.2617,465.1866 C82.1305,464.9454 82.0299,464.5622 81.9695,464.0582 C81.8986,463.5545 81.8581,462.8591 81.8482,461.992 L81.7271,450.9871 Z M81.7271,431.5765 C82.1407,431.0122 82.6246,430.5286 83.1785,430.1357 C83.7431,429.7425 84.3477,429.4403 84.9929,429.2283 C85.6276,429.0169 86.2725,428.9162 86.9278,428.9162 C87.9557,428.9261 88.8628,429.158 89.6389,429.6215 C90.4147,430.0954 91.0902,430.7304 91.6441,431.5264 C92.1983,432.3325 92.6422,433.2495 92.9946,434.2876 C93.3375,435.3157 93.5995,436.394 93.7608,437.533 C93.9215,438.6816 94.0023,439.8103 94.0023,440.9493 C93.962,442.5313 93.7707,443.8823 93.428,445.0009 C93.0753,446.1095 92.6221,447.0163 92.0574,447.7119 C91.4826,448.407 90.8584,448.9209 90.163,449.2435 C89.4671,449.566 88.7517,449.7171 88.0158,449.7171 C87.0483,449.7171 86.1721,449.6063 85.3855,449.3843 C84.5997,449.1627 83.9044,448.81 83.2995,448.3262 C82.7051,447.9531 82.2918,447.4599 82.0599,446.8652 C81.828,446.2606 81.7175,445.6151 81.7271,444.9402 L81.7271,431.5765 Z M107.487,429.5209 L107.487,437.3513 C107.487,437.946 107.4773,438.6515 107.4572,439.4679 C107.4365,440.2942 107.4167,441.1508 107.3965,442.0474 C107.3764,442.935 107.3563,443.7913 107.3359,444.5975 C107.3157,445.4039 107.3058,446.0891 107.3058,446.6435 C107.3157,447.2782 107.4666,447.9231 107.7894,448.558 C108.1018,449.1927 108.5454,449.7775 109.1197,450.3121 C109.6943,450.836 110.3593,451.2592 111.1351,451.5815 C111.9011,451.9038 112.7475,452.0654 113.6549,452.0756 C114.7128,452.0654 115.6604,451.9644 116.5068,451.7833 C117.3535,451.5917 118.0993,451.3598 118.734,451.088 C119.3692,450.8158 119.8928,450.5536 120.3166,450.292 C120.7398,450.0295 121.0621,449.818 121.2738,449.6565 C121.3949,449.5357 121.4853,449.4147 121.5258,449.2837 C121.5763,449.1426 121.5763,448.9917 121.5159,448.81 L121.1525,448.0847 C121.0921,447.9432 121.0119,447.863 120.9005,447.8429 C120.7902,447.8329 120.6389,447.8732 120.4274,447.9636 C119.9937,448.185 119.4699,448.3568 118.855,448.4877 C118.2405,448.6187 117.5953,448.689 116.9201,448.689 C116.6077,448.6995 116.2749,448.6187 115.9124,448.4676 C115.5495,448.306 115.1966,448.024 114.8641,447.6212 C114.5316,447.2076 114.2595,446.6336 114.0477,445.8875 C113.836,445.1519 113.7252,444.1947 113.7152,443.0257 L113.7152,437.5931 C113.7152,436.2631 113.7252,434.8922 113.7552,433.5115 C113.7858,432.131 113.836,430.8004 113.8967,429.5209 L121.2132,429.5209 C121.3949,429.5209 121.536,429.4908 121.6267,429.4301 C121.7274,429.3698 121.788,429.2791 121.8181,429.158 L122.4227,426.6182 C122.4528,426.4872 122.4326,426.3764 122.372,426.2854 C122.3017,426.185 122.1806,426.1343 121.9998,426.1343 L114.0177,426.1343 L114.2595,420.1481 C114.2595,419.8961 114.1991,419.6948 114.0781,419.5437 C113.957,419.3825 113.7756,419.3017 113.5341,419.3017 C113.3524,419.2917 113.1713,419.332 112.9995,419.4227 C112.8385,419.5035 112.6874,419.6645 112.5664,419.9063 C112.2945,420.4202 111.8914,420.9951 111.3568,421.6196 C110.8231,422.2446 110.2283,422.8694 109.5633,423.5142 C108.8978,424.1492 108.2228,424.7538 107.5473,425.3182 C106.8724,425.8727 106.2377,426.3563 105.6629,426.7392 C105.0883,427.1327 104.6347,427.3943 104.2824,427.5253 C103.8889,427.6766 103.597,427.8478 103.4153,428.0293 C103.2239,428.2212 103.1332,428.4323 103.1332,428.6741 C103.1437,428.9769 103.2239,429.1883 103.3753,429.3193 C103.5366,429.4608 103.7381,429.5209 103.9797,429.5209 L107.487,429.5209 Z M127.8647,442.6427 C127.8647,443.4988 127.8547,444.386 127.8241,445.3231 C127.804,446.2504 127.774,447.1674 127.7436,448.0847 C127.7136,448.558 127.6229,448.8809 127.4616,449.0524 C127.3102,449.2233 127.0786,449.3041 126.7762,449.2936 L124.1158,449.2936 C123.9341,449.2936 123.7831,449.3243 123.6821,449.4045 C123.5713,449.4753 123.5109,449.5964 123.5109,449.7775 L123.5109,450.9267 C123.5109,451.1586 123.5512,451.3198 123.6419,451.4106 C123.7224,451.4911 123.8434,451.5316 123.9945,451.5316 C124.3678,451.5208 125.1034,451.4911 126.222,451.4406 C127.3306,451.3901 128.7615,451.3598 130.5255,451.3499 C131.8853,451.3499 133.0747,451.37 134.1125,451.4001 C135.1511,451.4307 135.9876,451.4508 136.6322,451.4809 C137.2672,451.5115 137.6708,451.5316 137.842,451.5316 C138.0229,451.5316 138.1439,451.4709 138.2145,451.3598 C138.295,451.2592 138.3256,451.1078 138.3256,450.9267 L138.3256,449.7171 C138.3256,449.566 138.2851,449.4552 138.2046,449.3946 C138.1139,449.3243 137.9526,449.2936 137.721,449.2936 L135.3022,449.2936 C135,449.2936 134.7781,449.1726 134.6369,448.9209 C134.4858,448.659 134.3849,448.2658 134.3345,447.7215 C134.2942,447.4695 134.2642,447.0866 134.254,446.5627 C134.2338,446.0386 134.2242,445.4241 134.2134,444.7284 L134.2134,442.5214 L134.2134,435.9906 L134.2134,431.4155 C134.2242,430.0549 134.2338,428.9162 134.254,428.0089 C134.2642,427.0921 134.2942,426.4671 134.3345,426.1343 C134.3645,425.8931 134.3345,425.7114 134.254,425.5903 C134.1635,425.4696 134.0326,425.4092 133.8509,425.4092 C133.4883,425.4092 133.0047,425.5302 132.3998,425.7717 C132.1779,425.8622 131.8051,426.0033 131.2708,426.2052 C130.7367,426.3968 130.1219,426.6182 129.4368,426.8702 C128.7414,427.1219 128.0557,427.3739 127.3808,427.6163 C126.6954,427.8683 126.1007,428.0797 125.587,428.2713 C125.0728,428.4624 124.7199,428.5934 124.5388,428.6741 C124.388,428.7345 124.2769,428.7952 124.2162,428.8655 C124.1459,428.9463 124.1158,429.037 124.1158,429.158 L124.1158,429.823 C124.1054,429.9441 124.136,430.0447 124.2162,430.1357 C124.2871,430.2264 124.458,430.3069 124.7199,430.3676 C125.6372,430.6094 126.3226,430.9013 126.7762,431.2542 C127.2297,431.6071 127.522,432.0301 127.673,432.5037 C127.8145,432.9777 127.8749,433.5115 127.8647,434.1164 L127.8647,442.6427 Z M133.8509,415.5529 C133.8509,415.0789 133.7202,414.5953 133.4679,414.1216 C133.2057,413.638 132.8128,413.235 132.2788,412.9121 C131.7544,412.5895 131.0894,412.4186 130.2832,412.4084 C129.477,412.4186 128.7615,412.5793 128.1566,412.892 C127.552,413.2148 127.0786,413.6278 126.7461,414.1316 C126.4133,414.6458 126.2421,415.1999 126.2316,415.7944 C126.2421,416.4798 126.4232,417.0847 126.7762,417.5884 C127.1189,418.0924 127.5721,418.4853 128.1266,418.7571 C128.6907,419.0397 129.286,419.1707 129.9206,419.1806 C130.8274,419.1707 131.5735,418.9791 132.1478,418.6262 C132.7323,418.2735 133.1555,417.8203 133.4376,417.2763 C133.7097,416.7216 133.8509,416.147 133.8509,415.5529 Z M142.1955,449.8382 C142.2261,449.9592 142.2865,450.07 142.367,450.171 C142.458,450.2716 142.5583,450.3821 142.6794,450.5032 C142.911,450.6948 143.3342,450.9066 143.9595,451.1481 C144.5738,451.3901 145.34,451.6016 146.2371,451.7932 C147.1442,451.9746 148.1318,452.0654 149.2098,452.0756 C151.2151,452.0654 152.9791,451.6824 154.4908,450.9468 C156.0025,450.2112 157.1718,449.1831 158.0182,447.8828 C158.8646,446.5829 159.298,445.0711 159.308,443.3678 C159.3182,442.3502 159.177,441.4533 158.9049,440.6769 C158.6231,439.901 158.1492,439.1856 157.4938,438.5305 C156.9802,437.9766 156.4257,437.5026 155.8514,437.1197 C155.2666,436.7466 154.6217,436.4141 153.906,436.1417 C153.1905,435.8801 152.3645,435.6185 151.4469,435.386 C150.238,435.0739 149.23,434.7511 148.4241,434.429 C147.6173,434.0963 147.0127,433.6827 146.6096,433.1787 C146.2068,432.6854 146.005,432.0301 146.005,431.214 C146.0152,430.5084 146.2068,429.8936 146.5895,429.38 C146.9727,428.8655 147.4764,428.4732 148.1012,428.1906 C148.7262,427.9085 149.4216,427.7673 150.1773,427.7673 C150.8429,427.7773 151.4067,427.8779 151.8908,428.0797 C152.3747,428.2713 152.7775,428.5231 153.1202,428.8051 C153.4629,429.0874 153.745,429.3698 153.9868,429.6416 L156.8892,432.9074 C156.9498,433.0279 157.0207,433.1087 157.1111,433.139 C157.1919,433.1787 157.2826,433.1787 157.3728,433.1489 L158.5222,432.6047 C158.5823,432.5341 158.6123,432.4431 158.6231,432.3121 C158.6231,432.1911 158.6123,432.0601 158.5823,431.9391 L157.7963,427.8277 C157.7764,427.6565 157.6956,427.4853 157.5445,427.3237 C157.3835,427.1729 157.091,426.9711 156.6477,426.7392 C156.2848,426.5277 155.8412,426.3259 155.3071,426.1244 C154.7629,425.9231 154.1279,425.7516 153.3821,425.6207 C152.6363,425.4795 151.7698,425.4188 150.7822,425.4092 C149.9658,425.4092 149.2098,425.4696 148.5247,425.6005 C147.8291,425.7315 147.1643,425.9534 146.5087,426.2454 C145.8641,426.5374 145.1892,426.9209 144.4935,427.4045 C143.4351,428.1605 142.6592,429.0772 142.1552,430.1456 C141.6512,431.214 141.4097,432.4235 141.4097,433.7535 C141.4299,435.1746 141.7624,436.3736 142.4072,437.3513 C143.062,438.3287 143.9388,439.1354 145.0477,439.7701 C146.1566,440.405 147.4061,440.9192 148.7869,441.3118 C150.1872,441.7053 151.316,442.1183 152.1729,442.5313 C153.0295,442.9551 153.6443,443.4486 154.027,444.0028 C154.41,444.5572 154.6016,445.2324 154.5917,446.0287 C154.5818,446.7742 154.3899,447.4293 154.0069,447.9837 C153.6242,448.528 153.1103,448.9614 152.4654,449.2534 C151.81,449.5561 151.0949,449.7171 150.2983,449.7171 C149.3207,449.7072 148.5148,449.566 147.8798,449.2735 C147.2346,448.9815 146.7006,448.5986 146.2672,448.1048 C145.844,447.611 145.4508,447.0665 145.0982,446.4519 L143.1026,443.0656 C143.0422,442.9449 142.9716,442.8842 142.8809,442.8641 C142.7902,442.844 142.6794,442.8542 142.5583,442.8842 L141.4097,443.2468 C141.319,443.2774 141.2586,443.3378 141.228,443.4186 C141.198,443.509 141.198,443.6099 141.228,443.7306 L142.1955,449.8382 Z M166.5641,429.5209 L166.5641,437.3513 C166.5641,437.946 166.5542,438.6515 166.534,439.4679 C166.5139,440.2942 166.4935,441.1508 166.4734,442.0474 C166.4533,442.935 166.4331,443.7913 166.413,444.5975 C166.3929,445.4039 166.383,446.0891 166.383,446.6435 C166.3929,447.2782 166.544,447.9231 166.8668,448.558 C167.1786,449.1927 167.6226,449.7775 168.1969,450.3121 C168.7711,450.836 169.4364,451.2592 170.2126,451.5815 C170.9782,451.9038 171.8243,452.0654 172.732,452.0756 C173.7902,452.0654 174.7372,451.9644 175.5837,451.7833 C176.4306,451.5917 177.1762,451.3598 177.8111,451.088 C178.4464,450.8158 178.9699,450.5536 179.3934,450.292 C179.8169,450.0295 180.1392,449.818 180.351,449.6565 C180.472,449.5357 180.5621,449.4147 180.6027,449.2837 C180.6531,449.1426 180.6531,448.9917 180.5928,448.81 L180.2299,448.0847 C180.1693,447.9432 180.089,447.863 179.9779,447.8429 C179.8671,447.8329 179.716,447.8732 179.5043,447.9636 C179.0708,448.185 178.5467,448.3568 177.9322,448.4877 C177.3173,448.6187 176.6724,448.689 175.9972,448.689 C175.6846,448.6995 175.3521,448.6187 174.9892,448.4676 C174.6264,448.306 174.274,448.024 173.9413,447.6212 C173.6085,447.2076 173.3363,446.6336 173.1246,445.8875 C172.9131,445.1519 172.8026,444.1947 172.7927,443.0257 L172.7927,437.5931 C172.7927,436.2631 172.8026,434.8922 172.8326,433.5115 C172.863,432.131 172.9131,430.8004 172.9738,429.5209 L180.2903,429.5209 C180.472,429.5209 180.6129,429.4908 180.7036,429.4301 C180.8045,429.3698 180.8649,429.2791 180.8949,429.158 L181.4998,426.6182 C181.5299,426.4872 181.5098,426.3764 181.4494,426.2854 C181.3788,426.185 181.2578,426.1343 181.0766,426.1343 L173.0948,426.1343 L173.3363,420.1481 C173.3363,419.8961 173.2765,419.6948 173.1555,419.5437 C173.0342,419.3825 172.8528,419.3017 172.611,419.3017 C172.4293,419.2917 172.2481,419.332 172.0766,419.4227 C171.9156,419.5035 171.7645,419.6645 171.6435,419.9063 C171.3714,420.4202 170.9683,420.9951 170.434,421.6196 C169.8999,422.2446 169.3055,422.8694 168.6402,423.5142 C167.9749,424.1492 167.2997,424.7538 166.6245,425.3182 C165.9493,425.8727 165.3146,426.3563 164.7397,426.7392 C164.1654,427.1327 163.7119,427.3943 163.3595,427.5253 C162.9664,427.6766 162.6738,427.8478 162.4924,428.0293 C162.3008,428.2212 162.2106,428.4323 162.2106,428.6741 C162.2209,428.9769 162.3008,429.1883 162.4524,429.3193 C162.6134,429.4608 162.8153,429.5209 163.0568,429.5209 L166.5641,429.5209 Z M236.3443,440.5964 C236.2533,440.506 236.1427,440.506 236.0214,440.5867 C235.9009,440.6568 235.7694,440.8078 235.6183,441.0199 C234.9837,441.9471 234.1775,442.834 233.2199,443.6706 C232.2627,444.5065 231.1742,445.2529 229.9346,445.9077 C228.695,446.5528 227.3446,447.0769 225.8731,447.4494 C224.4016,447.8222 222.8298,448.0138 221.1667,448.024 C220.4411,448.0339 219.6751,447.9837 218.8792,447.8828 C218.0829,447.7822 217.2461,447.5705 216.3694,447.2581 C215.5028,446.9355 214.6057,446.4618 213.6685,445.8371 C212.7311,445.2024 211.7639,444.3656 210.7664,443.3176 C209.6578,442.0982 208.7303,440.7679 208.0046,439.3471 C207.279,437.9361 206.7149,436.5051 206.3013,435.0637 C205.8985,433.6226 205.6062,432.2517 205.4452,430.9716 C205.2734,429.6921 205.1929,428.5732 205.2029,427.6163 C205.2029,425.8727 205.3644,424.1492 205.6972,422.4663 C206.0292,420.7833 206.5332,419.2008 207.2291,417.7194 C207.9139,416.2377 208.8009,414.9383 209.8795,413.809 C210.9575,412.6802 212.2376,411.7935 213.7292,411.1487 C215.2208,410.5038 216.934,410.1809 218.8687,410.171 C220.4311,410.1809 221.8422,410.3827 223.102,410.7759 C224.3617,411.179 225.5003,411.7128 226.5285,412.3985 C227.5563,413.0734 228.5136,413.8495 229.3903,414.6962 C230.237,415.5931 230.9627,416.4999 231.5775,417.4271 C232.2023,418.3645 232.7162,419.2611 233.1292,420.1382 C233.5422,421.0152 233.8651,421.8112 234.1066,422.5468 C234.1976,422.7886 234.2883,422.9703 234.3989,423.0811 C234.4998,423.1817 234.6208,423.2121 234.7719,423.1514 L235.9211,422.7886 C236.0418,422.7585 236.1223,422.6981 236.1529,422.5972 C236.1932,422.5065 236.1932,422.3654 236.1629,422.1837 C236.1223,421.8716 236.062,421.3778 235.9712,420.7026 C235.8905,420.0273 235.7898,419.2515 235.679,418.3645 C235.5682,417.4875 235.4573,416.5705 235.3462,415.6334 C235.2357,414.6962 235.1347,413.809 235.0338,412.9628 C234.9434,412.1263 234.8626,411.4004 234.8022,410.806 C234.7419,410.2112 234.7115,409.8184 234.7115,409.6267 C234.7217,409.2134 234.6713,408.9515 234.5604,408.8209 C234.4496,408.6998 234.2177,408.6491 233.8651,408.6596 C233.5122,408.6491 233.2803,408.6692 233.1593,408.6998 C233.0283,408.7401 232.9478,408.8506 232.8974,409.0218 L232.4138,410.5942 C232.3633,410.836 232.2525,410.957 232.0813,410.957 C231.9098,410.957 231.6178,410.836 231.2042,410.5942 C230.4683,410.1608 229.5012,409.7174 228.3018,409.2642 C227.1025,408.8106 225.7217,408.4277 224.1499,408.115 C222.5673,407.8026 220.8544,407.6411 218.9897,407.6311 C216.5712,407.6411 214.3843,407.9438 212.4187,408.5181 C210.4436,409.1026 208.7003,409.8787 207.1783,410.8462 C205.6567,411.8236 204.3567,412.9022 203.2682,414.0913 C201.8571,415.6334 200.6983,417.2658 199.7915,419.0196 C198.874,420.7632 198.199,422.5771 197.7554,424.4718 C197.322,426.3662 197.1006,428.3014 197.1006,430.2766 C197.1006,431.6171 197.2316,433.0279 197.4932,434.4991 C197.7554,435.9807 198.1483,437.4522 198.6923,438.9237 C199.2269,440.3951 199.9018,441.7855 200.7185,443.0957 C201.5448,444.4061 202.5122,445.5649 203.6308,446.5729 C204.558,447.4293 205.5456,448.1955 206.604,448.8908 C207.652,449.5862 208.8009,450.1806 210.0507,450.6846 C211.3104,451.1886 212.711,451.5718 214.2632,451.8434 C215.8056,452.1155 217.5489,452.2567 219.4733,452.2567 C221.6203,452.2468 223.5955,451.9545 225.3994,451.4001 C227.2034,450.8459 228.8566,450.0902 230.3377,449.1329 C231.8293,448.1751 233.1698,447.0866 234.3586,445.8875 C235.5378,444.6783 236.5858,443.4186 237.4929,442.1081 C237.5535,441.9873 237.5737,441.8762 237.5436,441.7855 C237.5235,441.6852 237.4628,441.5945 237.3724,441.5037 L236.3443,440.5964 Z" id="Fill-4"></path>
            <path d="M261.3779,442.1588 L261.3779,443.7814 C261.3779,444.3755 261.3683,444.9504 261.3683,445.5346 C261.3578,446.1095 261.3478,446.6234 261.3277,447.0769 C261.3076,447.5302 261.2875,447.863 261.2569,448.0847 C261.2166,448.407 261.1058,448.6488 260.9249,448.8305 C260.7531,449.0017 260.5417,449.1224 260.2999,449.1927 C260.0578,449.2636 259.816,449.2936 259.5643,449.2936 L258.5364,449.2936 C258.3851,449.2936 258.274,449.3243 258.2139,449.3843 C258.143,449.4447 258.1129,449.5357 258.1129,449.6565 L258.1129,451.1078 C258.1129,451.2592 258.143,451.37 258.2238,451.4307 C258.2941,451.5007 258.4151,451.5316 258.5965,451.5316 C258.8987,451.5208 259.5943,451.4911 260.6729,451.4406 C261.7407,451.3901 263.1921,451.3598 265.0062,451.3499 C266.8505,451.3598 268.2618,451.3901 269.2494,451.4406 C270.237,451.4911 270.811,451.5208 270.9927,451.5316 C271.1739,451.5316 271.2949,451.4911 271.3757,451.4001 C271.446,451.3198 271.4766,451.1988 271.4766,451.0477 L271.4766,449.7171 C271.4865,449.566 271.446,449.4552 271.3556,449.3946 C271.2748,449.3243 271.1132,449.2936 270.8717,449.2936 L269.7832,449.2936 C269.4507,449.2936 269.1284,449.2735 268.8157,449.2333 C268.5135,449.1831 268.2511,449.0927 268.0501,448.9515 C267.838,448.81 267.7374,448.6088 267.7272,448.3262 L267.7272,440.3447 L267.7272,436.7166 C267.7374,435.8498 267.7272,435.0232 267.7071,434.2173 C267.677,433.4106 267.586,432.635 267.4452,431.8892 C267.2941,431.1434 267.0316,430.4279 266.6588,429.7524 C266.2864,429.0772 265.752,428.4323 265.0669,427.8277 C264.4722,427.3036 263.8775,426.8603 263.2831,426.4977 C262.6881,426.1448 262.0534,425.8727 261.3683,425.6912 C260.6828,425.4996 259.8968,425.4092 259.0197,425.4092 C258.0622,425.4092 257.095,425.5498 256.1071,425.8423 C255.1298,426.1244 254.2125,426.5479 253.3663,427.0921 C252.5091,427.6364 251.794,428.3116 251.2197,429.0974 L250.8568,429.0974 L250.8568,425.3485 L250.8568,423.1917 L250.8568,420.0574 C250.8667,418.8986 250.8667,417.7194 250.8667,416.5098 C250.8767,415.3105 250.8869,414.1823 250.8968,413.1238 C250.8968,412.0657 250.9169,411.179 250.9274,410.4632 C250.9373,409.7376 250.9574,409.2843 250.9776,409.0825 C251.0382,408.5989 251.0382,408.2361 250.9574,407.994 C250.8869,407.7522 250.7358,407.6311 250.4937,407.6311 C250.2014,407.6311 249.9398,407.6813 249.6878,407.7822 C249.4457,407.8729 249.1532,407.9841 248.8011,408.115 C248.3068,408.367 247.7123,408.6596 247.0068,409.0017 C246.3112,409.3444 245.5858,409.6973 244.8301,410.0502 C244.0639,410.4029 243.3484,410.7252 242.6636,411.0078 C241.9779,411.2895 241.4036,411.4914 240.9401,411.6223 C240.5872,411.7935 240.3553,411.9347 240.2448,412.0254 C240.1336,412.1263 240.0835,412.2372 240.0934,412.3477 L240.0934,412.9523 C240.0934,413.0734 240.1237,413.1641 240.2045,413.235 C240.2745,413.3152 240.3956,413.3758 240.577,413.4362 L241.6652,413.7988 C242.3509,414.0709 242.8951,414.4139 243.2982,414.8374 C243.7115,415.2501 244.0032,415.8148 244.1849,416.5098 C244.3666,417.2157 244.4471,418.1225 244.4471,419.241 L244.5679,440.8283 C244.5679,441.5338 244.5679,442.2592 244.558,443.005 C244.5477,443.7508 244.5276,444.4665 244.5072,445.1721 C244.4871,445.8674 244.457,446.482 244.4168,447.0364 C244.3763,447.5909 244.3261,448.0138 244.2657,448.3262 C244.1648,448.689 243.9329,448.941 243.5602,449.0825 C243.1973,449.2333 242.7636,449.3041 242.2701,449.2936 L240.7584,449.2936 C240.6073,449.2936 240.4763,449.3243 240.3754,449.3946 C240.2745,449.4552 240.2144,449.566 240.2144,449.7171 L240.2144,451.0477 C240.2144,451.2289 240.2544,451.3499 240.3451,451.4205 C240.4256,451.5007 240.5466,451.5316 240.698,451.5316 C240.95,451.5208 241.6249,451.4911 242.7438,451.4406 C243.8521,451.3901 245.3437,451.3598 247.2288,451.3499 C248.2866,451.3499 249.2643,451.37 250.151,451.4001 C251.0382,451.4307 251.7738,451.4508 252.368,451.4809 C252.963,451.5115 253.3459,451.5316 253.5174,451.5316 C253.6986,451.5316 253.8193,451.4709 253.9001,451.3598 C253.971,451.2592 254.001,451.1078 254.001,450.9267 L254.001,449.8382 C254.001,449.6264 253.9403,449.4853 253.8394,449.4045 C253.7286,449.3243 253.5778,449.2936 253.3964,449.2936 L251.945,449.2936 C251.532,449.314 251.2395,449.1329 251.0785,448.7497 C250.9274,448.3769 250.8466,447.7119 250.8568,446.7541 L250.8568,433.6932 C250.8667,433.1087 250.9878,432.544 251.2197,432.0102 C251.441,431.4759 251.6831,431.0425 251.945,430.7304 C252.61,430.0549 253.3357,429.5311 254.0914,429.1379 C254.8579,428.7549 255.6338,428.5633 256.4195,428.5531 C257.1353,428.5531 257.76,428.6741 258.2941,428.9162 C258.8284,429.158 259.3324,429.5209 259.8058,430.0044 C260.32,430.5388 260.6928,431.244 260.9147,432.1007 C261.1364,432.9675 261.2773,433.9146 261.3175,434.9529 C261.3683,436.0011 261.3884,437.0491 261.3779,438.1076 L261.3779,442.1588 Z M293.7286,451.3499 C293.7589,451.5917 293.8496,451.7728 293.9905,451.8941 C294.1419,452.0152 294.3332,452.0756 294.5753,452.0756 C294.8171,452.0756 295.0288,452.0452 295.2301,451.9948 C295.4217,451.9545 295.6034,451.8941 295.7845,451.8335 L303.2827,449.7171 C303.4038,449.6871 303.4942,449.6363 303.5447,449.5561 C303.605,449.4753 303.6155,449.3543 303.5849,449.1726 L303.4038,448.2051 C303.3732,448.0847 303.3128,448.0039 303.202,447.9735 C303.0911,447.933 302.9199,447.933 302.6778,447.9636 C302.3051,448.024 301.9323,448.054 301.5794,448.0742 C301.2169,448.0847 300.9345,448.0847 300.7429,448.0847 C300.5816,448.0946 300.4101,448.054 300.2389,447.9531 C300.068,447.863 299.9064,447.6614 299.7553,447.3692 C299.6141,447.0769 299.4934,446.6234 299.4126,446.0287 C299.3723,445.6151 299.342,445.0411 299.3321,444.3151 C299.3117,443.5898 299.3015,442.7734 299.2916,441.8561 L299.2916,439.0144 L299.2916,434.6606 C299.2916,433.1693 299.3117,431.9294 299.3522,430.9416 C299.3823,429.954 299.4225,429.158 299.4733,428.5633 C299.5234,427.9587 299.564,427.5054 299.594,427.1826 C299.6343,426.8702 299.6544,426.6383 299.6544,426.4977 C299.6544,426.3662 299.6243,426.2352 299.5535,426.1043 C299.4733,425.9733 299.3522,425.9024 299.1705,425.8931 C299.05,425.8931 298.9287,425.9024 298.798,425.9333 C298.677,425.9534 298.5358,425.9832 298.3848,426.0141 C298.2337,426.0439 298.082,426.0739 297.921,426.094 C297.7498,426.1244 297.5681,426.1343 297.3569,426.1343 L289.8587,426.1343 C289.5863,426.1244 289.4052,426.1544 289.294,426.2151 C289.1832,426.2757 289.133,426.4169 289.133,426.6182 L289.133,427.7067 C289.133,427.7875 289.1532,427.8578 289.2033,427.9085 C289.2538,427.9689 289.3748,428.0193 289.546,428.0695 C289.7173,428.1098 289.9897,428.1503 290.3423,428.1906 C290.8364,428.2212 291.2695,428.3014 291.6624,428.4323 C292.0558,428.5531 292.358,428.7549 292.5899,429.037 C292.8215,429.3292 292.9425,429.732 292.9425,430.2465 L292.9425,444.4563 C292.9323,444.8294 292.8518,445.2024 292.7004,445.5649 C292.5494,445.9179 292.4088,446.1999 292.2772,446.3915 C291.9444,446.8346 291.5521,447.238 291.0782,447.5809 C290.6045,447.9231 290.1008,448.1955 289.5767,448.3868 C289.042,448.5887 288.5383,448.689 288.0445,448.689 C287.6012,448.6995 287.1579,448.689 286.7142,448.6488 C286.2811,448.6187 285.8474,448.4775 285.4242,448.2457 C284.9911,448.0039 284.5778,447.5909 284.175,446.9962 C283.7716,446.351 283.4793,445.6355 283.2976,444.8495 C283.1162,444.0634 282.9955,443.2468 282.9555,442.4208 C282.915,441.5843 282.9045,440.7778 282.9246,440.002 C282.9453,439.2363 282.9555,438.5407 282.9651,437.9259 L282.9651,434.177 C282.9756,432.0709 283.0156,430.3676 283.0862,429.0571 C283.1565,427.7469 283.197,426.941 283.2072,426.6182 C283.2072,426.4268 283.1466,426.2658 283.0363,426.1142 C282.9354,425.9733 282.784,425.9024 282.6026,425.8931 C282.5119,425.8931 282.411,425.9024 282.2899,425.9333 C282.1791,425.9534 282.058,425.9832 281.937,426.0141 C281.8168,426.0439 281.6754,426.0739 281.5243,426.094 C281.3729,426.1244 281.2119,426.1343 281.0302,426.1343 L273.7741,426.1343 C273.4818,426.1343 273.28,426.1649 273.1893,426.2352 C273.0884,426.316 273.0385,426.437 273.0484,426.6182 L273.0484,427.7067 C273.0484,427.8779 273.1493,427.9893 273.3509,428.0395 C273.5626,428.0896 273.905,428.1404 274.379,428.1906 C274.9332,428.2413 275.3966,428.4323 275.7793,428.7549 C276.1523,429.0874 276.3947,429.6215 276.4951,430.3676 C276.5353,430.6196 276.5659,431.0022 276.586,431.496 C276.596,431.9901 276.6062,432.5341 276.6161,433.1087 L276.6161,434.721 C276.6161,435.356 276.6062,436.1925 276.586,437.2203 C276.5659,438.2584 276.5557,439.498 276.5557,440.9493 C276.5458,442.0678 276.5758,443.0858 276.6566,444.0133 C276.7269,444.9504 276.9285,445.847 277.2508,446.7135 C277.5634,447.5809 278.0776,448.4775 278.7931,449.4147 C279.4984,450.2812 280.1838,450.9066 280.8689,451.2895 C281.5444,451.6623 282.2196,451.8941 282.9045,451.9746 C283.5902,452.0554 284.2957,452.0954 285.0211,452.0756 C286.0895,452.0654 287.1377,451.8737 288.1956,451.4911 C289.2439,451.118 290.1912,450.614 291.0376,449.9995 C291.8943,449.3744 292.5494,448.6995 293.0029,447.9636 L293.3657,447.9636 L293.7286,451.3499 Z M309.5714,447.6614 C309.5714,448.2357 309.43,448.6488 309.1479,448.911 C308.8758,449.1726 308.4931,449.2936 307.999,449.2936 L305.8827,449.2936 C305.6709,449.2936 305.53,449.3243 305.4493,449.4045 C305.3688,449.4753 305.3381,449.5964 305.3381,449.7775 L305.3381,451.1078 C305.3381,451.2592 305.3688,451.37 305.4391,451.4307 C305.4997,451.5007 305.6103,451.5316 305.7619,451.5316 C306.0037,451.5208 306.7189,451.4911 307.8981,451.4406 C309.0773,451.3901 310.72,451.3598 312.8363,451.3499 C315.0536,451.3598 316.8071,451.3901 318.0872,451.4406 C319.3671,451.4911 320.1126,451.5208 320.3346,451.5316 C320.4856,451.5316 320.5965,451.5007 320.6571,451.4307 C320.7277,451.37 320.7575,451.2592 320.7575,451.1078 L320.7575,449.7171 C320.7575,449.566 320.7277,449.4552 320.6472,449.3946 C320.5763,449.3243 320.4556,449.2936 320.2742,449.2936 L317.6133,449.2936 C317.0089,449.314 316.5752,449.1329 316.3136,448.7497 C316.0412,448.3769 315.91,447.7119 315.9202,446.7541 L315.9202,435.0838 C315.9202,434.8117 315.9502,434.5093 316.0009,434.1569 C316.0511,433.804 316.1319,433.4511 316.2427,433.0885 C316.3539,432.7356 316.4848,432.413 316.6458,432.1208 C317.0189,431.496 317.4418,431.0425 317.9157,430.7706 C318.3792,430.4985 318.8027,430.3574 319.1857,430.3676 C319.4881,430.3676 319.7903,430.3976 320.0723,430.4679 C320.3646,430.5487 320.6364,430.6697 320.8788,430.8514 C321.1203,430.9716 321.4231,431.083 321.7658,431.1839 C322.1184,431.2744 322.5113,431.3245 322.9348,431.335 C323.4685,431.3245 323.9825,431.1635 324.4765,430.8611 C324.97,430.5589 325.3836,430.1558 325.7056,429.6719 C326.0183,429.1781 326.1901,428.6441 326.2,428.0695 C326.2,427.4949 326.069,426.9912 325.817,426.5374 C325.5653,426.0739 325.2025,425.7216 324.7285,425.4494 C324.2651,425.1872 323.7004,425.0563 323.0555,425.0464 C321.7153,425.0563 320.4355,425.5402 319.1959,426.4977 C317.9662,427.4448 316.8377,428.7751 315.7994,430.4883 L315.5576,430.4883 L315.0134,426.1343 C314.9827,425.943 314.9326,425.7822 314.8518,425.6306 C314.7713,425.4897 314.6502,425.4188 314.4691,425.4092 C314.2979,425.4092 314.1366,425.4392 313.9855,425.4795 C313.8441,425.5302 313.6828,425.5903 313.5016,425.6507 L306.1849,429.0974 C306.0037,429.1883 305.8827,429.2689 305.8121,429.3494 C305.7313,429.4301 305.7013,429.5209 305.7013,429.6416 L305.7013,430.0044 C305.7013,430.1255 305.7313,430.2159 305.8121,430.2868 C305.8827,430.3676 306.0037,430.4279 306.1849,430.4883 L307.2731,431.0929 C307.878,431.4053 308.3417,431.748 308.674,432.131 C309.0067,432.5037 309.2485,432.9876 309.3798,433.5622 C309.5107,434.1464 309.5813,434.8922 309.5714,435.8095 L309.5714,447.6614 Z M349.1173,445.847 C349.0266,445.7566 348.9256,445.7058 348.8247,445.7058 C348.7238,445.6959 348.6337,445.726 348.573,445.7866 C348.039,446.22 347.4545,446.6027 346.8294,446.9454 C346.2049,447.2884 345.4991,447.5705 344.7134,447.7723 C343.9375,447.9735 343.0401,448.0847 342.0426,448.0847 C341.3875,448.0946 340.6819,448.0039 339.9262,447.8329 C339.1801,447.6512 338.4445,447.3185 337.7288,446.8451 C337.0034,446.3714 336.3687,445.6959 335.8143,444.8191 C335.0787,443.5997 334.5443,442.4811 334.2118,441.4434 C333.8694,440.4152 333.6577,439.3871 333.5667,438.3593 C333.4862,437.3311 333.4462,436.2225 333.4558,435.0232 C333.4663,433.9452 333.6375,432.9777 333.9698,432.1109 C334.2923,431.2542 334.736,430.5186 335.27,429.9038 C335.8043,429.289 336.3988,428.8252 337.0238,428.5029 C337.6588,428.1704 338.2835,428.0089 338.8984,428.0089 C339.4222,427.9992 339.916,428.0596 340.3792,428.1906 C340.8429,428.3212 341.2667,428.5732 341.6494,428.9261 C342.0323,429.289 342.3651,429.8128 342.6469,430.4883 C342.8487,431.0224 343.0905,431.5162 343.4029,431.97 C343.7056,432.4235 344.0883,432.796 344.5521,433.0786 C345.0252,433.3604 345.5898,433.5015 346.2755,433.5115 C346.8396,433.5015 347.3235,433.3805 347.7164,433.139 C348.1093,432.9074 348.412,432.5845 348.6237,432.1812 C348.8247,431.7883 348.9358,431.335 348.9358,430.8514 C348.9458,430.3775 348.8247,429.8434 348.5832,429.2388 C348.3312,428.624 347.8978,428.0293 347.2728,427.4448 C346.6483,426.8702 345.7712,426.3863 344.6527,426.0033 C343.5239,425.6207 342.093,425.4188 340.3491,425.4092 C338.656,425.4092 337.0842,425.7114 335.6127,426.2959 C334.1512,426.8903 332.7908,427.7673 331.5212,428.9162 C330.5132,429.8531 329.6767,430.9214 329.0216,432.1109 C328.3563,433.2997 327.8628,434.5498 327.5405,435.8597 C327.2077,437.1599 327.0461,438.4602 327.0461,439.74 C327.0365,440.7375 327.1167,441.6954 327.2885,442.6022 C327.4597,443.509 327.752,444.4061 328.1752,445.303 C328.5984,446.1999 329.1931,447.1271 329.9488,448.0847 C331.0977,449.5255 332.4887,450.5437 334.1013,451.1682 C335.7236,451.7833 337.5681,452.0855 339.6235,452.0756 C340.7525,452.0654 341.841,451.9143 342.8989,451.6115 C343.9471,451.3096 344.935,450.9267 345.8418,450.4527 C346.7486,449.9793 347.5554,449.4753 348.2402,448.941 C348.9256,448.407 349.4597,447.8933 349.8432,447.4194 C349.9634,447.2683 350.0141,447.1373 350.0039,447.0163 C349.9943,446.8952 349.9336,446.7844 349.8432,446.6934 L349.1173,445.847 Z M372.7602,442.1588 L372.7602,443.7814 C372.7602,444.3755 372.7506,444.9504 372.7506,445.5346 C372.7401,446.1095 372.7301,446.6234 372.71,447.0769 C372.6899,447.5302 372.6698,447.863 372.6391,448.0847 C372.5989,448.407 372.4881,448.6488 372.3069,448.8305 C372.1351,449.0017 371.924,449.1224 371.6822,449.1927 C371.4401,449.2636 371.1983,449.2936 370.9463,449.2936 L369.9185,449.2936 C369.7671,449.2936 369.656,449.3243 369.5959,449.3843 C369.525,449.4447 369.4952,449.5357 369.4952,449.6565 L369.4952,451.1078 C369.4952,451.2592 369.525,451.37 369.6058,451.4307 C369.6761,451.5007 369.7971,451.5316 369.9788,451.5316 C370.281,451.5208 370.9763,451.4911 372.0549,451.4406 C373.1227,451.3901 374.5741,451.3598 376.3885,451.3499 C378.2325,451.3598 379.6438,451.3901 380.6314,451.4406 C381.6193,451.4911 382.1933,451.5208 382.375,451.5316 C382.5562,451.5316 382.6772,451.4911 382.758,451.4001 C382.8283,451.3198 382.8589,451.1988 382.8589,451.0477 L382.8589,449.7171 C382.8688,449.566 382.8283,449.4552 382.7379,449.3946 C382.6571,449.3243 382.4955,449.2936 382.254,449.2936 L381.1655,449.2936 C380.8327,449.2936 380.5107,449.2735 380.198,449.2333 C379.8958,449.1831 379.6334,449.0927 379.4321,448.9515 C379.2201,448.81 379.1197,448.6088 379.1095,448.3262 L379.1095,440.3447 L379.1095,436.7166 C379.1197,435.8498 379.1095,435.0232 379.0894,434.2173 C379.0593,433.4106 378.9683,432.635 378.8275,431.8892 C378.6764,431.1434 378.4139,430.4279 378.0409,429.7524 C377.6687,429.0772 377.134,428.4323 376.4492,427.8277 C375.8542,427.3036 375.2598,426.8603 374.6651,426.4977 C374.0704,426.1448 373.4354,425.8727 372.7506,425.6912 C372.0649,425.4996 371.2791,425.4092 370.402,425.4092 C369.4442,425.4092 368.477,425.5498 367.4894,425.8423 C366.5121,426.1244 365.5948,426.5479 364.7483,427.0921 C363.8914,427.6364 363.1763,428.3116 362.6017,429.0974 L362.2388,429.0974 L362.2388,425.3485 L362.2388,423.1917 L362.2388,420.0574 C362.2488,418.8986 362.2488,417.7194 362.2488,416.5098 C362.2587,415.3105 362.2689,414.1823 362.2788,413.1238 C362.2788,412.0657 362.2989,411.179 362.3094,410.4632 C362.3193,409.7376 362.3395,409.2843 362.3596,409.0825 C362.4203,408.5989 362.4203,408.2361 362.3395,407.994 C362.2689,407.7522 362.1181,407.6311 361.876,407.6311 C361.5837,407.6311 361.3218,407.6813 361.0698,407.7822 C360.828,407.8729 360.5355,407.9841 360.1831,408.115 C359.6888,408.367 359.0946,408.6596 358.3891,409.0017 C357.6935,409.3444 356.9681,409.6973 356.2121,410.0502 C355.4462,410.4029 354.7307,410.7252 354.0456,411.0078 C353.3602,411.2895 352.7856,411.4914 352.3224,411.6223 C351.9695,411.7935 351.7376,411.9347 351.6268,412.0254 C351.5157,412.1263 351.4655,412.2372 351.4754,412.3477 L351.4754,412.9523 C351.4754,413.0734 351.5057,413.1641 351.5865,413.235 C351.6568,413.3152 351.7779,413.3758 351.9593,413.4362 L353.0475,413.7988 C353.7329,414.0709 354.2774,414.4139 354.6805,414.8374 C355.0935,415.2501 355.3855,415.8148 355.5672,416.5098 C355.7489,417.2157 355.8294,418.1225 355.8294,419.241 L355.9502,440.8283 C355.9502,441.5338 355.9502,442.2592 355.9403,443.005 C355.93,443.7508 355.9099,444.4665 355.8895,445.1721 C355.8694,445.8674 355.8393,446.482 355.7991,447.0364 C355.7586,447.5909 355.7084,448.0138 355.648,448.3262 C355.5471,448.689 355.3152,448.941 354.9422,449.0825 C354.5796,449.2333 354.1459,449.3041 353.6521,449.2936 L352.1407,449.2936 C351.9896,449.2936 351.8586,449.3243 351.7577,449.3946 C351.6568,449.4552 351.5964,449.566 351.5964,449.7171 L351.5964,451.0477 C351.5964,451.2289 351.6367,451.3499 351.7274,451.4205 C351.8079,451.5007 351.9289,451.5316 352.0803,451.5316 C352.3323,451.5208 353.0072,451.4911 354.1261,451.4406 C355.2344,451.3901 356.726,451.3598 358.6108,451.3499 C359.6689,451.3499 360.6466,451.37 361.5333,451.4001 C362.4203,451.4307 363.1561,451.4508 363.7503,451.4809 C364.3453,451.5115 364.7279,451.5316 364.8994,451.5316 C365.0809,451.5316 365.2016,451.4709 365.2824,451.3598 C365.3533,451.2592 365.3833,451.1078 365.3833,450.9267 L365.3833,449.8382 C365.3833,449.6264 365.3226,449.4853 365.2217,449.4045 C365.1109,449.3243 364.9598,449.2936 364.7784,449.2936 L363.3273,449.2936 C362.9143,449.314 362.6218,449.1329 362.4605,448.7497 C362.3094,448.3769 362.2286,447.7119 362.2388,446.7541 L362.2388,433.6932 C362.2488,433.1087 362.3698,432.544 362.6017,432.0102 C362.8233,431.4759 363.0654,431.0425 363.3273,430.7304 C363.9923,430.0549 364.7177,429.5311 365.4737,429.1379 C366.2399,428.7549 367.0161,428.5633 367.8018,428.5531 C368.5173,428.5531 369.1423,428.6741 369.6761,428.9162 C370.2107,429.158 370.7147,429.5209 371.1881,430.0044 C371.7023,430.5388 372.0748,431.244 372.2967,432.1007 C372.5187,432.9675 372.6596,433.9146 372.6998,434.9529 C372.7506,436.0011 372.7707,437.0491 372.7602,438.1076 L372.7602,442.1588 Z" id="Fill-5"></path>
        </g>
    </g>
</svg>